<?xml version="1.0" encoding="UTF-8"?>
<svg xmlns="http://www.w3.org/2000/svg" viewBox="0 0 50 50">
    <path style="text-indent:0;text-align:start;line-height:normal;text-transform:none;block-progression:tb;-inkscape-font-specification:Sans" d="M 25 2 C 12.309296 2 2 12.309296 2 25 C 2 37.690704 12.309296 48 25 48 C 37.690704 48 48 37.690704 48 25 C 48 12.309296 37.690704 2 25 2 z M 25 4 C 36.609824 4 46 13.390176 46 25 C 46 36.609824 36.609824 46 25 46 C 13.390176 46 4 36.609824 4 25 C 4 13.390176 13.390176 4 25 4 z M 25 8 C 15.623004 8 8 15.623004 8 25 C 8 34.376996 15.623004 42 25 42 C 34.376996 42 42 34.376996 42 25 C 42 15.623004 34.376996 8 25 8 z M 25 10 C 33.296116 10 40 16.703884 40 25 C 40 33.296116 33.296116 40 25 40 C 16.703884 40 10 33.296116 10 25 C 10 16.703884 16.703884 10 25 10 z M 21.8125 15 L 21.8125 21 L 23.40625 22.59375 L 21.8125 24.21875 L 21.8125 35 L 28.1875 35 L 28.1875 29 L 26.59375 27.40625 L 28.1875 25.78125 L 28.1875 15 L 21.8125 15 z" overflow="visible" font-family="Sans"/>
</svg>