<?xml version="1.0" encoding="UTF-8"?>
<svg xmlns="http://www.w3.org/2000/svg" viewBox="0 0 100 100" xml:space="preserve"> <path d="M99.3,42.7l-6.6-6.6c-0.1-0.1-2.4-2.5-6.3-2.9c0.2-2.3,0-5.4-2.2-7.6l-15-15C68,9.4,55.4-3.6,31,7.4 c-1,0.4-1.6,1.4-1.5,2.5c0.1,1.1,0.9,1.9,1.9,2.2c4.2,1,15.8,4.4,19.2,8.6c1.9,2.4,2.9,5.6,0.8,7.7c-3.6,3.5-6.2,6.2-6.2,6.2 c-0.5,0.5-0.7,1.1-0.7,1.8c0,0.7,0.3,1.3,0.7,1.8l13.5,13.4c0.9,0.9,2.6,0.9,3.5,0l5.8-5.8c1.4-1.4,2.9-0.9,4-0.3 c-0.7,5.4,2.5,8.5,2.6,8.7l6.7,6.6c0.5,0.5,1.1,0.7,1.8,0.7c0.7,0,1.3-0.3,1.8-0.7L99,46.5c0,0,0,0,0,0l0.3-0.3 c0.5-0.5,0.7-1.1,0.7-1.8C100,43.8,99.7,43.1,99.3,42.7z M85.3,53.1C85.3,53.1,85.3,53.1,85.3,53.1l-2.3,2.3l-4.9-4.9 c0,0-1.9-2-0.9-5.5c0.2-0.9,0-1.8-0.7-2.5c-1.3-1.2-3.8-2.6-6.5-2.6c-1.8,0-3.7,0.6-5.4,2.4l-4.1,4l-9.9-9.9 c1.1-1.1,2.7-2.7,4.5-4.4c3.6-3.6,3.4-9.4-0.4-14.2c-2.9-3.7-9.4-6.5-14.6-8.3c16.9-4.7,25,4.2,25.4,4.6c0,0,0.1,0.1,0.1,0.1l15,15 c1.4,1.4,0.7,4.8,0.3,5.8c-0.3,0.8-0.1,1.8,0.5,2.5c0.6,0.7,1.5,1,2.4,0.8c3.3-0.7,5.2,1.2,5.3,1.3l4.9,4.9L85.3,53.1z"/> <path d="M11.3,91.7c-0.5,0.5-1.3,0.5-1.7,0l-4.2-4.2c-0.5-0.5-0.5-1.3,0-1.7l41-40.9l-3.5-3.5l-41,40.9c-2.4,2.4-2.4,6.3,0,8.7 l4.2,4.2c1.2,1.2,2.8,1.8,4.4,1.8c1.6,0,3.2-0.6,4.4-1.8l40.8-40.7L52.1,51L11.3,91.7z"/> </svg>