<?xml version="1.0" encoding="utf-8"?>
<!-- Svg Vector Icons : http://www.onlinewebfonts.com/icon -->
<!DOCTYPE svg PUBLIC "-//W3C//DTD SVG 1.1//EN" "http://www.w3.org/Graphics/SVG/1.1/DTD/svg11.dtd">
<svg version="1.1" xmlns="http://www.w3.org/2000/svg" xmlns:xlink="http://www.w3.org/1999/xlink" x="0px" y="0px" viewBox="0 0 1000 1000" enable-background="new 0 0 1000 1000" xml:space="preserve">
<metadata> Svg Vector Icons : http://www.onlinewebfonts.com/icon </metadata>
<g><g transform="translate(0.000000,511.000000) scale(0.100000,-0.100000)"><path d="M780.9,4967c-172.9-53.4-312.7-167.8-391.5-325.4c-55.9-109.3-183-760.1-231.3-1177C48.8,2496.1,94.6,1382.7,287.8,363.3c485.5-2582.7,1741.3-4367.2,3467.3-4931.6c836.3-274.5,1779.4-261.8,2618.3,38.1c874.5,312.7,1715.9,1055,2305.6,2033.6C9746.7-722.1,10168.7,1972.4,9726.4,4184c-96.6,493.2-165.2,617.7-383.9,732.1c-177.9,91.5-289.8,89-622.8-10.2c-711.8-216.1-1314.2-325.4-2270-416.9c-658.4-61-2237-61-2897.9,0c-902.4,86.4-1576.1,205.9-2224.3,401.7C999.5,4989.8,902.9,5002.5,780.9,4967z M3462.8,2079.2c99.1-45.8,213.5-134.7,330.5-251.7c439.8-444.9,518.6-1032.1,162.7-1215.1c-216.1-111.8-988.9-124.6-1321.9-20.3c-676.2,208.4-899.9,833.8-452.5,1263.4c223.7,213.5,521.1,315.2,887.2,305C3272.1,2152.9,3333.1,2140.2,3462.8,2079.2z M7301.3,2130c327.9-86.4,597.4-289.8,699.1-528.7c43.2-99.2,53.4-165.2,45.8-282.2c-22.9-353.3-266.9-605-719.4-742.3c-122-38.1-239-48.3-584.7-48.3c-503.3,0-660.9,30.5-785.5,150c-358.4,335.5,58.5,1217.6,678.7,1441.3C6800.5,2178.3,7095.4,2183.4,7301.3,2130z"/></g></g>
</svg>