<?xml version="1.0" encoding="UTF-8"?>
<svg width="2619px" height="2599px" viewBox="0 0 2619 2599" version="1.1" xmlns="http://www.w3.org/2000/svg" xmlns:xlink="http://www.w3.org/1999/xlink">
    <!-- Generator: Sketch 52.6 (67491) - http://www.bohemiancoding.com/sketch -->
    <title>mysql 2</title>
    <desc>Created with Sketch.</desc>
    <g id="Page-1" stroke="none" stroke-width="1" fill="none" fill-rule="evenodd">
        <g id="mysql" transform="translate(60.000000, 61.000000)" fill="#00546B" stroke="#FFFFFF" stroke-width="60">
            <path d="M967.004982,1859.84431 C967.102133,1859.97396 967.199293,1860.10358 967.296464,1860.23317 L966.718553,1859.43546 C966.813859,1859.57166 966.90934,1859.70796 967.004997,1859.84433 Z M1122.12891,1983.26172 L1122.12891,1978.1543 L1092.12891,1978.1543 L1092.12891,1983.26172 L1122.12891,1983.26172 Z M1016.12621,1857.35831 C1016.10942,1857.34572 1016.09262,1857.33313 1016.07582,1857.32054 L1016.1724,1857.39322 C1016.157,1857.38158 1016.14161,1857.36995 1016.12621,1857.35831 Z M2383.37891,1935.83437 C2384.37845,1936.92806 2385.38184,1938.00755 2386.39714,1939.08203 L2398.08594,1939.08203 L2409.7385,1927.43691 L2408.60119,1923.79883 L2383.37891,1923.79883 L2383.37891,1935.83437 Z M2447.82684,2411.83031 C2448.51969,2412.51907 2449.2167,2413.21455 2449.92695,2413.92561 L2471.15234,2392.72461 L2446.56875,2409.919 C2446.99522,2410.52874 2447.41247,2411.16174 2447.82684,2411.83031 Z M2491.79946,2452.1875 L2498.33984,2447.09961 L2468.33984,2447.09961 L2468.33984,2452.1875 L2491.79946,2452.1875 Z M2231.90826,1866.43093 C2228.8467,1864.34446 2225.61676,1862.19438 2222.21357,1859.9747 C2217.51016,1856.90698 2212.56148,1853.75756 2206.6448,1850.05135 C2203.31341,1847.96456 2192.3816,1841.16356 2191.60855,1840.6811 C2179.185,1832.92751 2172.14051,1828.33079 2166.27423,1823.95084 C2094.67495,1772.51789 2047.14792,1739.88591 1998.41386,1709.79402 C1986.61354,1702.59423 1970.42805,1695.87563 1941.37112,1685.52094 C1938.38157,1684.45559 1927.6162,1680.64209 1928.07384,1680.80449 C1922.69155,1678.89452 1918.66612,1677.45219 1914.77384,1676.03248 C1902.77074,1671.65436 1893.41294,1667.97513 1885.09609,1664.25638 C1877.50849,1661.19352 1867.49958,1657.84263 1852.72388,1653.32759 C1850.58337,1652.67351 1819.29389,1643.29997 1809.63943,1640.28489 C1784.43783,1632.41445 1765.36358,1625.51999 1748.8659,1617.8332 C1726.51491,1607.41916 1710.06529,1596.04271 1699.51142,1581.52518 C1677.12452,1552.36574 1656.95236,1519.40952 1636.77458,1480.26285 C1621.57768,1450.77951 1610.03429,1425.78344 1586.30344,1372.33787 C1585.78647,1371.17357 1585.78647,1371.17357 1585.26974,1370.00976 C1580.58871,1359.46706 1578.27458,1354.26413 1575.55031,1348.16843 L1575.50113,1348.0584 L1575.45284,1347.94798 C1560.98398,1314.86214 1550.63168,1292.76763 1518.00724,1224.38741 C1509.31087,1206.15996 1503.72633,1194.40508 1498.00653,1182.2518 C1482.87184,1150.09406 1470.84479,1123.64133 1459.98554,1098.32431 C1452.57377,1082.13905 1448.46927,1071.60192 1437.73348,1042.51041 C1435.23553,1035.74156 1433.63232,1031.44426 1431.94863,1027.03689 C1425.50339,1010.16529 1419.90389,997.26594 1413.20323,984.429063 C1291.88319,750.127231 1112.29653,553.424362 893.741705,414.944774 C813.531707,364.584927 735.973355,326.601366 656.1975,300.990984 C636.613383,295.151815 618.279777,293.276608 575.21581,291.401017 C569.780151,291.164275 567.523101,291.064392 564.560846,290.926791 C534.666494,289.53816 515.084495,287.707151 495.425406,283.652344 L458.800116,283.652344 L454.858928,282.55722 C442.558948,279.139467 430.945749,273.221842 419.146392,265.003986 C410.565759,259.027863 402.749927,252.55117 391.925706,242.849203 C369.795868,223.013785 371.467054,224.465306 365.9239,220.515093 C321.173365,190.245249 276.658425,168.340555 203.57025,138.732919 L202.904832,138.463361 L202.253069,138.162282 C188.852502,131.971931 170.454475,125.332356 154.602115,121.686805 C145.370356,119.563787 137.43557,118.547042 131.513106,118.699344 C129.194555,118.758968 127.424793,118.992343 126.29038,119.300118 L121.853523,123.056342 L115.073887,124.750035 C114.294287,124.944795 113.618855,125.129927 113.042389,125.302909 L111.857632,130.041939 L108.975181,134.365615 C107.758347,136.190866 107.283232,140.509764 108.623275,147.692813 C110.064499,155.418229 113.177923,164.067786 118.050183,174.811499 C130.143599,200.56826 143.237168,219.49714 169.983859,252.586449 C171.429306,254.374665 176.713645,260.898156 176.41762,260.532496 C179.041172,263.773191 181.025675,266.232639 182.973709,268.661402 C193.371688,281.625358 201.207427,291.868257 208.735782,302.567686 C214.239565,310.335107 234.325873,338.155359 236.54403,341.253501 C254.120259,365.802549 266.386454,383.969628 277.27169,402.20491 C284.747446,414.728526 291.124187,426.626255 296.419825,438.100314 C315.831944,479.915985 329.468217,518.430361 351.776337,589.573772 C352.742665,592.655513 352.972082,593.388235 355.393155,601.123025 C376.499066,668.551713 386.921669,699.078502 402.129033,734.558716 C415.550054,765.903017 437.363742,804.321239 460.176198,837.733857 C464.092401,843.003625 469.152435,848.284096 478.643608,857.26306 C479.602511,858.170214 483.182403,861.545648 482.939737,861.316638 C494.342799,872.078032 500.548524,878.375349 507.048951,886.371119 C515.580953,896.865801 521.995407,907.638027 526.17822,919.496288 C533.723166,934.242311 534.823422,952.139029 531.878912,973.843831 C529.592729,990.695925 524.743137,1009.99262 517.634167,1032.18663 C514.434371,1042.17631 510.823171,1052.60683 506.6959,1063.90673 C502.753296,1074.70105 486.968344,1115.74834 484.624587,1122.66604 C443.275391,1253.27862 450.136406,1439.57191 498.990811,1555.24398 C499.873764,1557.30375 500.7902,1559.46371 501.825631,1561.92192 C501.607594,1561.40428 507.541039,1575.55851 509.205962,1579.46721 C519.557371,1603.76896 527.233675,1618.50321 536.462584,1630.40867 C539.581807,1634.43252 542.788521,1637.96622 546.139379,1641.03576 C546.918359,1634.02804 547.851439,1625.51938 549.050733,1614.54515 C554.556623,1564.16308 557.829016,1538.76017 563.077873,1510.33678 C569.99371,1472.88642 579.00527,1441.15393 591.594109,1412.54773 C597.791524,1397.43609 605.865498,1383.09799 616.052198,1368.40537 C623.811009,1357.21457 631.564979,1347.36532 644.362515,1331.9623 C645.146607,1331.01857 645.945293,1330.05864 647.009399,1328.7807 C646.779037,1329.05735 649.029445,1326.35507 649.627345,1325.63673 C651.72574,1323.11567 653.263134,1321.26305 654.75784,1319.45169 C664.190716,1308.02047 670.487895,1299.8954 675.976954,1291.84688 L691.922427,1268.4663 L716.19224,1283.0226 C727.046597,1289.53272 734.465099,1299.03391 739.861827,1310.95411 C743.134477,1318.18268 745.016629,1324.22148 748.306226,1336.46857 C748.363453,1336.68162 748.638972,1337.70793 748.715108,1337.99133 C748.870299,1338.56899 748.995575,1339.03438 749.115685,1339.47913 C751.52835,1348.41286 753.05243,1353.03649 754.782034,1356.4957 L755.229367,1357.39037 L755.616112,1358.31284 C779.880586,1416.18914 780.51419,1417.68994 790.006097,1439.33746 C803.346667,1469.76234 815.491868,1495.66436 827.670427,1519.26005 C886.930303,1634.198 948.932214,1735.72328 1015.30119,1824.23948 L1015.5967,1824.6336 L1015.8791,1825.0372 C1036.06356,1853.88398 1066.19726,1888.2411 1100.10603,1922.20066 C1102.17073,1923.96518 1104.53214,1925.78823 1107.74333,1928.12413 C1108.46559,1928.64952 1109.22708,1929.19869 1110.20057,1929.89713 C1110.56991,1930.16212 1112.32158,1931.41688 1112.81169,1931.76866 C1121.32685,1937.88045 1127.58974,1942.82331 1132.87358,1948.1543 L1152.12891,1948.1543 L1152.12891,2026.21481 L1111.80127,2011.42801 C1094.03916,2004.91524 1077.69243,1995.05818 1061.31281,1981.79191 C1049.28932,1972.05378 1039.24604,1962.41801 1022.53914,1945.28613 C1021.84489,1944.57422 1021.14027,1943.85098 1020.19147,1942.87662 C1019.6079,1942.2773 1019.6079,1942.2773 1019.02618,1941.67985 C1018.44538,1941.08338 1018.20814,1940.83975 1017.86638,1940.4889 C1016.00333,1938.57622 1014.6253,1937.16443 1013.279,1935.79045 C998.868288,1921.08352 989.608305,1912.46363 980.096055,1905.33571 L979.999474,1905.26303 C889.721197,1837.04407 801.857815,1748.69486 751.866132,1669.69428 L750.826437,1668.05128 L750.007519,1666.28782 C740.552862,1645.92812 730.435615,1625.09312 717.661467,1599.49889 C717.601342,1599.88722 717.54138,1600.27716 717.481573,1600.66876 C715.99949,1610.37313 715.21718,1616.38968 712.697788,1636.7177 C710.017684,1658.34245 708.444026,1669.56166 706.10907,1682.10131 C702.951587,1699.05828 699.066088,1713.52471 693.803716,1726.68257 C680.527566,1759.8778 658.549012,1783.6762 625.394782,1796.97722 C599.005507,1807.81553 572.437858,1809.84263 546.607721,1803.74263 C524.414973,1798.50162 503.584437,1787.51084 483.907554,1771.82232 C468.062644,1759.18907 453.3644,1743.84959 439.351477,1726.15844 C429.092778,1713.20696 420.345406,1700.57538 410.445487,1685.10831 L410.296571,1684.87565 L410.151965,1684.64029 C317.400321,1533.67842 295.0337,1286.14811 357.865341,1088.91527 C361.268437,1078.29067 363.680061,1068.12527 367.971063,1047.54636 C368.09559,1046.94915 368.205424,1046.42203 368.440566,1045.29333 C373.186538,1022.51339 375.600172,1012.12242 379.500178,999.444878 C383.244164,987.274502 387.57507,976.433077 392.854792,966.612253 C390.531741,962.671419 386.658831,958.658308 379.877348,952.53697 C379.510186,952.20555 378.198923,951.023818 377.956742,950.805335 C368.890298,942.626048 364.035086,937.718944 358.845271,930.599292 C337.344225,901.409285 319.209006,870.315582 293.612167,821.462262 L293.548407,821.340572 L293.485765,821.218303 C273.616569,782.436677 256.785664,740.585492 234.91852,678.857692 C230.56054,666.55574 216.028827,624.919885 215.247039,622.693468 C210.895594,610.301209 207.250862,600.063521 203.74334,590.420587 C203.560193,589.94774 203.378287,589.47354 203.197582,588.997923 C198.00581,575.333147 195.221869,565.509051 189.156019,541.565414 C184.058567,521.444322 181.292375,511.978841 177.145788,501.816588 C166.57441,479.079877 151.069668,455.715449 124.779321,420.986178 C126.042354,422.654631 100.538928,389.248099 93.8708916,380.234986 L93.6159272,379.890353 L93.3709144,379.538576 C88.555139,372.624327 83.0076094,365.433908 71.0735238,350.434329 C55.0940215,330.350192 49.7663583,323.55383 41.3456178,312.246025 C13.4371227,274.769057 -6.04559166,241.6453 -17.9597063,207.163127 C-33.5794684,161.955963 -34.2878158,117.925094 -16.7853727,75.7305877 C3.48934241,26.07137 37.9421674,-6.26754325 83.5762444,-20.9256533 C122.161768,-33.3196992 167.023316,-32.6529189 217.010773,-21.3345352 C257.758095,-12.1083441 301.087779,4.02141583 345.76635,25.4435542 C380.52166,42.1077634 414.361228,61.1493089 444.93927,80.4675995 L445.039257,80.5307685 L445.138743,80.5947239 C451.34327,84.583348 457.620325,89.3632978 464.890203,95.4553257 C467.676877,97.7905092 470.558172,100.273307 474.065731,103.34681 C475.929001,104.979503 482.211621,110.52058 482.948619,111.168482 C497.532903,123.98967 506.833875,131.285353 514.618228,135.583195 C527.699354,136.155662 541.401012,136.896567 559.824424,137.987453 C563.375613,138.197726 566.219345,138.367796 572.591549,138.75015 C604.260049,140.650369 618.279757,141.422403 635.708428,142.123879 L638.558504,142.23859 L641.335893,142.888357 C648.741363,144.620858 673.977431,150.466023 675.118815,150.731433 C720.066612,161.183291 746.701435,168.002215 774.095854,176.610833 C809.386944,187.700957 839.525883,200.187142 866.787522,215.65573 L866.981676,215.765895 L867.174169,215.878938 C1172.91068,395.42404 1362.44255,576.596599 1535.12962,861.60156 C1546.47797,880.171241 1556.66863,899.873176 1566.76482,922.232033 C1574.49732,939.356296 1580.90531,954.920039 1591.99245,982.900506 C1608.64249,1024.91997 1613.99188,1037.96006 1623.38441,1058.32355 L1623.54225,1058.66575 L1623.69145,1059.01181 C1671.28957,1169.41758 1717.31136,1267.72243 1762.00811,1352.52574 L1762.15914,1352.81228 L1762.30394,1353.10201 C1767.57558,1363.64995 1771.76973,1372.66959 1780.07324,1391.00231 C1780.92414,1392.88112 1781.36103,1393.84575 1781.77245,1394.75373 C1801.77341,1438.89479 1812.56851,1459.05291 1828.35003,1478.33025 L1829.06942,1479.20899 L1829.60699,1479.97757 C1829.76598,1480.13732 1830.01919,1480.35824 1830.37352,1480.63022 C1831.44211,1481.45045 1833.00055,1482.40491 1835.05066,1483.44692 C1839.35566,1485.63502 1844.69273,1487.7105 1853.86874,1490.86094 C1855.11793,1491.28984 1859.45877,1492.76947 1860.00222,1492.95539 C1871.43518,1496.86678 1878.00043,1499.37845 1884.8237,1502.79662 L1884.97409,1502.87196 L1885.12364,1502.94899 C1901.649,1511.46066 1917.81858,1518.80662 1947.8009,1531.76164 C1948.15659,1531.91533 1958.47316,1536.36913 1961.48048,1537.67045 C2010.41022,1558.84305 2037.26371,1571.9038 2064.13644,1589.21759 C2157.98469,1647.48983 2253.29718,1719.08594 2348.03723,1800.84234 L2348.24088,1801.01808 L2348.44135,1801.19745 C2364.87785,1815.90379 2376.00591,1829.22121 2398.55714,1859.00328 C2398.85915,1859.40213 2398.85915,1859.40213 2399.16072,1859.80039 C2416.33618,1882.4831 2424.3037,1892.29064 2434.59888,1902.5924 L2443.37891,1911.37803 L2443.37891,1961.13539 L2422.33009,1967.71552 C2381.1568,1980.58679 2362.57494,1986.10515 2339.21021,1991.9508 C2312.68446,1998.76636 2292.92929,2001.64405 2249.45274,2006.28908 C2243.73406,2006.90007 2240.87845,2007.2079 2237.56386,2007.57396 C2208.29427,2010.80647 2189.44727,2013.82346 2169.89746,2018.98383 C2166.71978,2019.89483 2147.96524,2025.30075 2141.99192,2026.99341 C2127.58132,2031.07694 2115.7925,2034.23558 2104.34296,2037.00756 C2101.49165,2037.69787 2098.68861,2038.35687 2095.93123,2038.98428 C2112.20784,2055.45089 2137.7564,2073.76247 2172.98166,2094.83733 C2179.96964,2099.01816 2187.2138,2103.25657 2196.48087,2108.60834 C2198.35108,2109.6884 2214.78334,2119.1466 2219.45415,2121.85442 C2237.98676,2132.59837 2250.06203,2139.96906 2260.48427,2147.13564 L2260.73484,2147.30793 L2260.98186,2147.48528 C2331.48886,2198.10276 2393.53523,2257.77938 2442.91004,2323.75056 C2447.3652,2328.17918 2452.08949,2332.76093 2457.89389,2338.30523 C2460.21657,2340.52383 2462.00489,2342.2246 2466.33075,2346.33299 C2479.17648,2358.53293 2485.04939,2364.18682 2492.37774,2371.52361 L2494.23206,2373.38006 L2495.73594,2375.53022 C2501.74354,2384.11956 2505.70424,2392.29314 2510.92299,2405.23596 C2511.181,2405.87584 2511.4459,2406.53586 2511.76715,2407.33855 C2511.93256,2407.75187 2512.49268,2409.15297 2512.57959,2409.37024 C2517.0489,2420.54267 2519.30322,2425.1885 2522.01878,2428.6793 L2528.33984,2436.8049 L2528.33984,2494.73533 L2488.26371,2480.44474 C2478.03998,2476.7991 2468.99496,2471.45848 2460.35017,2464.4604 C2454.37454,2459.62303 2450.0251,2455.39106 2441.98701,2447.03761 C2441.45773,2446.48747 2441.12976,2446.14654 2440.93663,2445.94585 C2433.83477,2438.56592 2430.36423,2435.26068 2426.65546,2432.52531 C2413.06401,2423.25235 2402.15579,2415.33135 2378.05762,2397.48465 C2346.60926,2374.19453 2332.73814,2364.28577 2315.81442,2353.52764 C2290.25025,2337.37941 2267.23196,2325.81703 2217.12936,2302.74216 C2216.82752,2302.60315 2213.34745,2301.00056 2212.32304,2300.5287 C2210.47949,2299.67954 2208.96037,2298.97941 2207.50113,2298.30624 C2162.50062,2277.54713 2137.38515,2264.90607 2110.51731,2248.37202 L2110.32171,2248.25165 L2110.12798,2248.1283 C2078.05512,2227.70763 2053.34649,2209.69195 1999.50939,2168.67851 C1966.79399,2144.49074 1929.00327,2098.93466 1903.63195,2056.78718 C1899.53611,2050.29824 1896.29409,2043.59769 1893.08045,2035.56806 C1892.36487,2033.78011 1891.66096,2031.95451 1890.85911,2029.82244 C1890.55822,2029.02239 1890.25853,2028.21952 1889.86136,2027.15117 C1889.74913,2026.8493 1889.62099,2026.50435 1889.38532,2025.86994 C1889.19704,2025.36318 1889.05813,2024.98968 1888.92279,2024.62649 C1884.99436,2014.08447 1882.95441,2010.06831 1880.75945,2007.87336 L1870.63923,1997.75313 L1872.13749,1983.51961 C1874.26911,1963.26928 1884.8416,1947.64935 1901.32845,1937.22812 C1911.786,1930.61797 1921.9478,1927.04002 1939.24714,1922.49953 C1939.95476,1922.31381 1940.68359,1922.12362 1941.58469,1921.8893 C1941.98666,1921.78478 1943.50007,1921.39172 1943.85182,1921.30026 C1952.49661,1919.05258 1956.70742,1917.82019 1960.26341,1916.41882 C2035.45664,1884.66875 2122.50354,1868.84695 2231.90826,1866.43093 Z" id="Path"/>
            <path d="M639.167417,442.715869 C643.337638,448.673544 645.796454,453.421203 649.995158,462.541046 C653.456331,470.058928 654.864568,472.574698 657.26196,475.369359 L664.492188,483.7977 L664.492188,494.902344 C664.492188,543.171957 649.625164,579.287365 618.391969,602.704547 C617.838536,603.259315 617.293941,603.807276 616.781588,604.32545 C616.768134,604.339058 616.768134,604.339058 616.754688,604.352659 L587.323525,634.124066 L568.590962,596.685836 C564.393801,588.297541 560.21869,579.649033 555.134375,568.881869 C553.336661,565.074812 551.925256,562.069107 548.709816,555.208886 C539.907281,536.428458 535.609756,527.392026 530.591129,517.310734 C526.465137,511.718849 521.836911,506.314563 512.982365,496.477213 C512.668321,496.128312 511.593811,494.934926 511.459798,494.786063 C499.164165,481.127865 491.139006,471.587479 484.738034,462.041016 L468.574219,462.041016 L468.574219,405.2084 L491.311271,399.535026 C517.062128,393.109644 539.508813,390.136719 568.222656,390.136719 L580.655374,390.136719 L589.443475,398.931134 C592.019312,401.508821 595.45321,404.108289 602.967576,409.241452 C603.319556,409.481894 604.730541,410.444771 605.083166,410.685642 C612.914711,416.035229 617.292367,419.222266 622.171621,423.402754 C629.034144,429.282483 634.677412,435.513887 639.167417,442.715869 Z" id="Path"/>
        </g>
    </g>
</svg>