<?xml version="1.0" encoding="UTF-8"?>
<!-- Generator: Adobe Illustrator 21.1.0, SVG Export Plug-In . SVG Version: 6.00 Build 0)  -->
<svg version="1.1" xmlns="http://www.w3.org/2000/svg" xmlns:xlink="http://www.w3.org/1999/xlink" x="0px" y="0px" viewBox="0 0 48 48" style="enable-background:new 0 0 48 48;" xml:space="preserve">
<style type="text/css">
	.st0{fill:#E0E0E0;}
	.st1{fill:#262626;}
	.st2{fill:#4F5B94;}
	.st3{fill:#15587C;}
	.st4{fill:none;}
	.st5{fill:#BCBCBC;}
	.st6{fill:#FFFFFF;}
	.st7{fill:#D34231;}
	.st8{fill:#666666;}
	.st9{fill:#EDA72B;}
	.st10{fill:#25323C;}
	.st11{fill:#336792;}
	.st12{fill:#32415B;}
	.st13{fill:#84B556;}
	.st14{fill:#6A9638;}
	.st15{fill:#189BD8;}
	.st16{fill:#BA342A;}
	.st17{fill:#FF6C2C;}
	.st18{fill:#8892BF;}
	.st19{fill:#FFFFFF;stroke:#FFFFFF;stroke-width:0.25;stroke-miterlimit:10;}
	.st20{fill:#FFFFFF;stroke:#FFFFFF;stroke-miterlimit:10;}
	.st21{fill:#FF6A1A;}
	.st22{fill:#00AA17;}
	.st23{fill:#FA741D;}
	.st24{fill:none;stroke:#15587C;stroke-miterlimit:10;}
	.st25{fill:none;stroke:#15587C;stroke-width:1.5;stroke-miterlimit:10;}
	.st26{fill:none;stroke:#BA342A;stroke-width:5;stroke-miterlimit:10;}
	.st27{fill:#000004;}
	.st28{fill:#000004;stroke:#FFFFFF;stroke-width:0.5;stroke-miterlimit:10;}
	.st29{fill:#017F00;}
	.st30{fill:none;stroke:#BCBCBC;stroke-miterlimit:10;}
	.st31{fill:#39FF2A;}
	.st32{fill:#FF00B3;}
	.st33{fill:#4DFF00;}
	.st34{fill:#FFFFFF;stroke:#FFFFFF;stroke-width:1.5;stroke-miterlimit:10;}
	.st35{fill:#FFFFFF;stroke:#FFFFFF;stroke-width:0.5;stroke-miterlimit:10;}
	.st36{fill:#FFFFFF;stroke:#BCBCBC;stroke-miterlimit:10;}
</style>
<g id="Layer_1">
	<g>
		<path class="st5" d="M44.904,42.852H3.096C1.386,42.852,0,41.466,0,39.756V8.034c0-1.71,1.386-3.096,3.096-3.096h41.809    c1.71,0,3.096,1.386,3.096,3.096v31.722C48,41.466,46.614,42.852,44.904,42.852z"/>
		<path class="st10" d="M42.969,37.387H5.031c-1.335,0-2.416-1.082-2.416-2.416V10.442c0-1.335,1.082-2.416,2.416-2.416h37.938    c1.335,0,2.416,1.082,2.416,2.416v24.529C45.386,36.305,44.304,37.387,42.969,37.387z"/>
		<path class="st8" d="M29.542,41.251H18.458c-0.589,0-1.067-0.478-1.067-1.067v-0.158c0-0.589,0.478-1.067,1.067-1.067h11.084    c0.589,0,1.067,0.478,1.067,1.067v0.158C30.609,40.774,30.131,41.251,29.542,41.251z"/>
		<g>
			<path class="st20" d="M13.854,23.29l-4.52,2.191v-1.22l3.232-1.373v-0.021l-3.232-1.472v-1.224l4.52,2.283V23.29z"/>
			<path class="st20" d="M19.206,27.399h-4.113v-0.611h4.113V27.399z"/>
			<path class="st6" d="M22.414,25.589v-1.646c0.281,0.25,0.585,0.438,0.915,0.563c0.329,0.125,0.662,0.188,0.997,0.188     c0.197,0,0.369-0.019,0.515-0.057c0.147-0.038,0.27-0.09,0.368-0.157c0.098-0.066,0.171-0.146,0.22-0.236     c0.048-0.091,0.072-0.189,0.072-0.296c0-0.144-0.039-0.272-0.116-0.386c-0.077-0.113-0.183-0.218-0.317-0.313     c-0.134-0.097-0.292-0.188-0.477-0.278c-0.184-0.089-0.382-0.18-0.595-0.272c-0.542-0.24-0.946-0.533-1.212-0.88     c-0.266-0.346-0.399-0.765-0.399-1.255c0-0.384,0.072-0.714,0.218-0.99c0.145-0.275,0.343-0.503,0.593-0.682     c0.25-0.178,0.54-0.31,0.869-0.394s0.677-0.126,1.045-0.126c0.361,0,0.682,0.023,0.961,0.069     c0.279,0.047,0.536,0.118,0.771,0.214v1.538c-0.116-0.086-0.243-0.161-0.38-0.227c-0.137-0.065-0.278-0.119-0.423-0.162     c-0.145-0.043-0.29-0.074-0.433-0.095s-0.28-0.031-0.409-0.031c-0.178,0-0.339,0.019-0.484,0.054     c-0.146,0.036-0.268,0.087-0.368,0.152c-0.1,0.065-0.178,0.143-0.232,0.233c-0.055,0.092-0.083,0.193-0.083,0.307     c0,0.123,0.031,0.234,0.092,0.332c0.061,0.098,0.148,0.19,0.261,0.277c0.113,0.088,0.25,0.173,0.411,0.257     c0.162,0.085,0.344,0.171,0.547,0.26c0.277,0.124,0.527,0.255,0.748,0.394c0.221,0.14,0.411,0.296,0.569,0.471     c0.158,0.175,0.279,0.375,0.363,0.6s0.126,0.486,0.126,0.784c0,0.412-0.074,0.757-0.22,1.037     c-0.147,0.279-0.346,0.506-0.598,0.679s-0.544,0.298-0.878,0.373s-0.687,0.113-1.057,0.113c-0.381,0-0.743-0.034-1.086-0.104     C22.963,25.829,22.666,25.727,22.414,25.589z"/>
			<path class="st6" d="M27.969,25.589v-1.646c0.281,0.25,0.585,0.438,0.915,0.563c0.329,0.125,0.662,0.188,0.997,0.188     c0.197,0,0.369-0.019,0.515-0.057c0.147-0.038,0.27-0.09,0.368-0.157c0.098-0.066,0.171-0.146,0.22-0.236     c0.048-0.091,0.072-0.189,0.072-0.296c0-0.144-0.039-0.272-0.116-0.386c-0.077-0.113-0.183-0.218-0.317-0.313     c-0.134-0.097-0.292-0.188-0.477-0.278c-0.184-0.089-0.382-0.18-0.595-0.272c-0.542-0.24-0.946-0.533-1.212-0.88     c-0.266-0.346-0.399-0.765-0.399-1.255c0-0.384,0.072-0.714,0.218-0.99c0.145-0.275,0.343-0.503,0.593-0.682     c0.25-0.178,0.54-0.31,0.869-0.394s0.677-0.126,1.045-0.126c0.361,0,0.682,0.023,0.961,0.069     c0.279,0.047,0.536,0.118,0.771,0.214v1.538c-0.116-0.086-0.243-0.161-0.38-0.227c-0.137-0.065-0.278-0.119-0.423-0.162     c-0.145-0.043-0.29-0.074-0.433-0.095s-0.28-0.031-0.409-0.031c-0.178,0-0.339,0.019-0.484,0.054     C30.123,19.769,30,19.819,29.9,19.885c-0.1,0.065-0.178,0.143-0.232,0.233c-0.055,0.092-0.083,0.193-0.083,0.307     c0,0.123,0.031,0.234,0.092,0.332c0.061,0.098,0.148,0.19,0.261,0.277c0.113,0.088,0.25,0.173,0.411,0.257     c0.162,0.085,0.344,0.171,0.547,0.26c0.277,0.124,0.527,0.255,0.748,0.394c0.221,0.14,0.411,0.296,0.569,0.471     c0.158,0.175,0.279,0.375,0.363,0.6s0.126,0.486,0.126,0.784c0,0.412-0.074,0.757-0.22,1.037     c-0.147,0.279-0.346,0.506-0.598,0.679s-0.544,0.298-0.878,0.373s-0.687,0.113-1.057,0.113c-0.381,0-0.743-0.034-1.086-0.104     C28.519,25.829,28.221,25.727,27.969,25.589z"/>
			<path class="st6" d="M39.849,25.872h-1.568v-3.004h-2.875v3.004h-1.563v-7.376h1.563v2.942h2.875v-2.942h1.568V25.872z"/>
		</g>
	</g>
</g>
<g id="remote_x5F_mysql">
</g>
<g id="addon_x5F_domains">
</g>
<g id="mysql_x5F_database_x5F_wizard">
</g>
<g id="multiphp_x5F_ini_x5F_editor">
</g>
</svg>