<svg aria-hidden="true" style="position: absolute; width: 0; height: 0; overflow: hidden;" version="1.1" xmlns="http://www.w3.org/2000/svg" xmlns:xlink="http://www.w3.org/1999/xlink">
<defs>
<symbol id="icon-whatsapp" viewBox="0 0 32 32">
<title>whatsapp</title>
<path fill="#646464" style="fill: var(--color1, #646464)" d="M0.001 4.8c0-2.659 2.141-4.8 4.8-4.8h22.399c2.659 0 4.8 2.141 4.8 4.8v22.399c0 2.659-2.141 4.8-4.8 4.8h-22.399c-2.659 0-4.8-2.141-4.8-4.8z"></path>
<path fill="#fff" style="fill: var(--color2, #fff)" d="M19.25 17.062c-0.188-0.125-0.375-0.188-0.562 0.063l-0.75 1c-0.188 0.125-0.312 0.188-0.562 0.063-0.937-0.5-2.25-1.062-3.375-2.937-0.063-0.25 0.063-0.375 0.188-0.5l0.562-0.875c0.125-0.125 0.063-0.25 0-0.375l-0.75-1.812c-0.188-0.5-0.375-0.437-0.562-0.437h-0.5c-0.125 0-0.375 0.063-0.625 0.312-1.375 1.375-0.812 3.312 0.188 4.562 0.188 0.25 1.437 2.5 4.125 3.687 2 0.875 2.437 0.75 3 0.625 0.688-0.063 1.375-0.625 1.687-1.187 0.063-0.188 0.375-1 0.125-1.125zM16.5 24c-2.562 0-4.5-1.375-4.5-1.375l-3.062 0.812 0.75-3c0 0-1.25-1.937-1.25-4.375 0-4.5 3.687-8.25 8.25-8.25 4.25 0 7.875 3.312 7.875 7.937 0 4.5-3.625 8.187-8.062 8.25zM6.563 25.812l5.187-1.437c3.055 1.564 6.703 1.43 9.634-0.355s4.726-4.963 4.74-8.395c0-5.375-4.25-9.687-9.625-9.687-3.51 0.009-6.752 1.881-8.515 4.917s-1.78 6.779-0.047 9.832z"></path>
</symbol>
<symbol id="icon-veracrypt" viewBox="0 0 32 32">
<title>veracrypt</title>
<path d="M2.668 7.493l-2.668-4.619 5.335-0.001-2.666 4.621z"></path>
<path d="M2.667 7.493l2.667-4.62 2.667 4.62h-5.335z"></path>
<path d="M5.336 12.113l-2.668-4.619 5.335-0.001-2.666 4.621z"></path>
<path d="M5.335 12.113l2.667-4.62 2.667 4.62h-5.335z"></path>
<path d="M8.003 16.734l-2.668-4.619 5.335-0.001-2.666 4.621z"></path>
<path d="M8.002 16.734l2.667-4.62 2.667 4.62h-5.335z"></path>
<path d="M10.67 21.355l-2.668-4.619 5.335-0.001-2.666 4.621z"></path>
<path d="M10.669 21.354l2.667-4.62 2.667 4.62h-5.335z"></path>
<path d="M16.005 21.355l-2.668-4.619 5.335-0.001-2.666 4.621z"></path>
<path d="M13.336 16.734l2.667-4.62 2.667 4.62h-5.335z"></path>
<path d="M18.672 16.734l-2.668-4.619 5.335-0.001-2.666 4.621z"></path>
<path d="M16.004 12.113l2.667-4.62 2.667 4.62h-5.335z"></path>
<path d="M21.34 12.114l-2.668-4.619 5.335-0.001-2.666 4.621z"></path>
<path d="M18.671 7.493l2.667-4.62 2.667 4.62h-5.335z"></path>
<path d="M18.683 16.729l-2.669-4.619 5.335-0.001-2.666 4.621z"></path>
<path d="M16.014 12.108l2.667-4.62 2.667 4.62h-5.335z"></path>
<path d="M21.35 12.108l-2.668-4.619 5.335-0.001-2.666 4.621z"></path>
<path d="M18.682 7.487l2.667-4.62 2.667 4.62h-5.335z"></path>
<path d="M24.018 7.488l-2.669-4.619 5.335-0.001-2.666 4.621z"></path>
<path d="M23.997 7.493l2.667-4.62 2.668 4.62h-5.335z"></path>
<path d="M29.331 7.488l-2.667-4.62 5.335 0.001-2.668 4.619z"></path>
<path d="M18.669 16.713l2.693-4.605 2.642 4.635-5.335-0.030z"></path>
<path d="M21.33 21.348l2.667-4.62 2.668 4.62h-5.335z"></path>
<path d="M26.666 21.349l-2.668-4.619 5.335-0.001-2.666 4.621z"></path>
<path d="M26.665 21.348l2.667-4.62 2.667 4.62h-5.335z"></path>
<path d="M21.331 21.349l-2.668-4.619 5.334-0.001-2.666 4.621z"></path>
<path d="M4.308 27.692l1.519-4.394h-0.854l-0.639 2.008c-0.176 0.535-0.332 1.069-0.45 1.591h-0.013c-0.117-0.535-0.261-1.050-0.43-1.604l-0.6-1.995h-0.874l1.421 4.394h0.919z"></path>
<path d="M8.917 26.329c0.013-0.072 0.026-0.189 0.026-0.339 0-0.698-0.339-1.545-1.369-1.545-1.017 0-1.552 0.828-1.552 1.708 0 0.971 0.606 1.604 1.636 1.604 0.456 0 0.834-0.085 1.108-0.196l-0.117-0.554c-0.241 0.091-0.508 0.143-0.88 0.143-0.508 0-0.958-0.248-0.978-0.821h2.125zM6.791 25.769c0.033-0.326 0.241-0.776 0.737-0.776 0.535 0 0.665 0.482 0.658 0.776h-1.395z"></path>
<path d="M9.666 27.692h0.802v-1.643c0-0.091 0.013-0.176 0.026-0.248 0.072-0.359 0.332-0.606 0.717-0.606 0.098 0 0.169 0.013 0.235 0.026v-0.756c-0.065-0.013-0.111-0.020-0.189-0.020-0.339 0-0.711 0.228-0.867 0.678h-0.026l-0.026-0.606h-0.698c0.020 0.287 0.026 0.593 0.026 1.023v2.151z"></path>
<path d="M14.582 27.692c-0.033-0.196-0.046-0.476-0.046-0.763v-1.147c0-0.691-0.293-1.336-1.31-1.336-0.502 0-0.913 0.137-1.147 0.28l0.156 0.522c0.215-0.137 0.541-0.235 0.854-0.235 0.561 0 0.645 0.346 0.645 0.554v0.052c-1.173-0.006-1.884 0.398-1.884 1.2 0 0.482 0.359 0.945 0.997 0.945 0.411 0 0.743-0.176 0.939-0.424h0.020l0.052 0.352h0.724zM13.754 26.577c0 0.052-0.007 0.117-0.026 0.176-0.072 0.228-0.306 0.437-0.626 0.437-0.254 0-0.456-0.143-0.456-0.456 0-0.482 0.541-0.606 1.108-0.593v0.437z"></path>
<path d="M18.532 27.099c-0.228 0.111-0.58 0.183-0.926 0.183-1.069 0-1.688-0.691-1.688-1.767 0-1.154 0.685-1.812 1.715-1.812 0.365 0 0.671 0.078 0.887 0.183l0.137-0.463c-0.15-0.078-0.495-0.196-1.043-0.196-1.363 0-2.295 0.932-2.295 2.308 0 1.441 0.932 2.223 2.171 2.223 0.535 0 0.952-0.104 1.16-0.209l-0.117-0.45z"></path>
<path d="M19.321 27.692h0.567v-1.682c0-0.098 0.013-0.189 0.026-0.267 0.078-0.43 0.365-0.737 0.769-0.737 0.078 0 0.137 0.006 0.196 0.020v-0.541c-0.052-0.013-0.098-0.020-0.163-0.020-0.385 0-0.73 0.267-0.874 0.691h-0.026l-0.020-0.619h-0.502c0.020 0.293 0.026 0.613 0.026 0.984v2.171z"></path>
<path d="M21.199 24.537l1.167 2.908c0.026 0.072 0.039 0.117 0.039 0.15s-0.020 0.078-0.046 0.137c-0.13 0.293-0.326 0.515-0.482 0.639-0.169 0.143-0.359 0.235-0.502 0.28l0.143 0.482c0.143-0.026 0.424-0.124 0.704-0.372 0.391-0.339 0.671-0.893 1.082-1.975l0.861-2.249h-0.606l-0.626 1.851c-0.078 0.228-0.143 0.469-0.202 0.658h-0.013c-0.052-0.189-0.13-0.437-0.202-0.645l-0.691-1.864h-0.626z"></path>
<path d="M24.686 28.983h0.567v-1.715h0.013c0.189 0.313 0.554 0.495 0.971 0.495 0.743 0 1.434-0.561 1.434-1.695 0-0.958-0.574-1.604-1.336-1.604-0.515 0-0.887 0.228-1.121 0.613h-0.013l-0.026-0.541h-0.515c0.013 0.3 0.026 0.626 0.026 1.030v3.416zM25.254 25.866c0-0.078 0.020-0.163 0.039-0.235 0.111-0.43 0.476-0.711 0.867-0.711 0.606 0 0.939 0.541 0.939 1.173 0 0.724-0.352 1.219-0.958 1.219-0.411 0-0.756-0.274-0.861-0.671-0.013-0.072-0.026-0.15-0.026-0.235v-0.541z"></path>
<path d="M28.526 23.78v0.756h-0.489v0.437h0.489v1.721c0 0.372 0.059 0.652 0.222 0.821 0.137 0.156 0.352 0.241 0.619 0.241 0.222 0 0.398-0.033 0.509-0.078l-0.026-0.43c-0.072 0.020-0.183 0.039-0.332 0.039-0.319 0-0.43-0.222-0.43-0.613v-1.701h0.821v-0.437h-0.821v-0.906l-0.561 0.15z"></path>
</symbol>
<symbol id="icon-word-new" viewBox="0 0 32 32">
<title>word-new</title>
<path stroke-width="1.3333" stroke-miterlimit="4" stroke-linecap="round" stroke-linejoin="round" d="M18 0.667l-17.333 3.333v24l17.333 3.333v-30.667z"></path>
<path stroke-width="1.3333" stroke-miterlimit="4" stroke-linecap="round" stroke-linejoin="round" d="M18 4.667h13.333v22.667h-13.333"></path>
<path stroke-width="1.3333" stroke-miterlimit="4" stroke-linecap="round" stroke-linejoin="round" d="M18 8h10.667"></path>
<path stroke-width="1.3333" stroke-miterlimit="4" stroke-linecap="round" stroke-linejoin="round" d="M18 12h10.667"></path>
<path stroke-width="1.3333" stroke-miterlimit="4" stroke-linecap="round" stroke-linejoin="round" d="M18 16h10.667"></path>
<path stroke-width="1.3333" stroke-miterlimit="4" stroke-linecap="round" stroke-linejoin="round" d="M18 20h10.667"></path>
<path stroke-width="1.3333" stroke-miterlimit="4" stroke-linecap="round" stroke-linejoin="round" d="M18 24h10.667"></path>
<path stroke-width="1.3333" stroke-miterlimit="4" stroke-linecap="round" stroke-linejoin="round" d="M4 12l2 8 2.667-8.667 2.667 9.333 2.667-10"></path>
</symbol>
<symbol id="icon-1pass" viewBox="0 0 32 32">
<title>1pass</title>
<path d="M16 1.28c-8.122 0-14.72 6.598-14.72 14.72s6.598 14.72 14.72 14.72c8.122 0 14.72-6.598 14.72-14.72s-6.598-14.72-14.72-14.72zM16 2.56c7.43 0 13.44 6.010 13.44 13.44s-6.010 13.44-13.44 13.44c-7.43 0-13.44-6.010-13.44-13.44s6.010-13.44 13.44-13.44zM16 5.12c-6.001 0-10.88 4.879-10.88 10.88s4.879 10.88 10.88 10.88c6.001 0 10.88-4.879 10.88-10.88s-4.879-10.88-10.88-10.88zM16 6.4c5.309 0 9.6 4.29 9.6 9.6s-4.291 9.6-9.6 9.6c-5.309 0-9.6-4.291-9.6-9.6s4.29-9.6 9.6-9.6zM13.96 9.6v3.84l1.020 1.020-1.020 1.040v6.9h4.080v-3.84l-1.020-1.020 1.020-1.040v-6.9h-4.080z"></path>
</symbol>
<symbol id="icon-lastpass" viewBox="0 0 32 32">
<title>lastpass</title>
<path fill="#262626" style="fill: var(--color3, #262626)" d="M0.106 4.874c0-2.642 2.127-4.768 4.768-4.768h22.252c2.642 0 4.768 2.127 4.768 4.768v22.252c0 2.642-2.127 4.768-4.768 4.768h-22.252c-2.642 0-4.768-2.127-4.768-4.768z"></path>
<path fill="#fff" style="fill: var(--color2, #fff)" d="M4.079 16c0-1.513 1.218-2.732 2.732-2.732s2.732 1.218 2.732 2.732-1.218 2.732-2.732 2.732-2.732-1.218-2.732-2.732zM11.468 16c0-1.513 1.218-2.732 2.732-2.732s2.732 1.218 2.732 2.732-1.218 2.732-2.732 2.732-2.732-1.218-2.732-2.732zM18.918 16c0-1.513 1.218-2.732 2.732-2.732s2.732 1.218 2.732 2.732-1.218 2.732-2.732 2.732-2.732-1.218-2.732-2.732zM26.679 10.675c0-0.352 0.284-0.636 0.636-0.636h-0.030c0.352 0 0.636 0.284 0.636 0.636v10.649c0 0.352-0.284 0.636-0.636 0.636h0.030c-0.352 0-0.636-0.284-0.636-0.636z"></path>
</symbol>
<symbol id="icon-document-file-pdf" viewBox="0 0 32 32">
<title>document-file-pdf</title>
<path d="M20.966 26.483v2.21c0 1.221-0.987 2.204-2.204 2.204h-16.557c-1.221 0-2.204-0.992-2.204-2.215v-25.362c0-1.224 0.992-2.215 2.216-2.215h11.025v6.623c0 1.226 0.991 2.205 2.213 2.205h5.511v2.207h-9.923c-1.832 0-3.318 1.481-3.318 3.309v7.727c0 1.827 1.474 3.309 3.318 3.309h9.923zM14.345 1.104v6.617c0 0.611 0.498 1.107 1.093 1.107h5.527l-6.62-7.724zM11.029 13.242h18.77c1.205 0 2.201 0.984 2.201 2.198v7.742c0 1.205-0.985 2.198-2.201 2.198h-18.77c-1.205 0-2.201-0.984-2.201-2.198v-7.742c0-1.205 0.985-2.198 2.201-2.198zM25.379 18.759v-2.207h4.414v-1.103h-5.517v7.724h1.103v-3.31h3.31v-1.103h-3.31zM11.035 17.655v5.517h1.103v-3.31h2.201c1.222 0 2.212-0.98 2.212-2.207 0-1.219-0.986-2.207-2.212-2.207h-3.305v2.207zM12.138 16.552v2.207h2.208c0.609 0 1.102-0.49 1.102-1.103 0-0.609-0.488-1.103-1.102-1.103h-2.208zM17.655 15.449v7.724h3.305c1.222 0 2.212-0.978 2.212-2.213v-3.297c0-1.222-0.986-2.213-2.212-2.213h-3.305zM18.759 16.552v5.517h2.208c0.609 0 1.102-0.49 1.102-1.103v-3.311c0-0.609-0.488-1.103-1.102-1.103h-2.208z"></path>
</symbol>
<symbol id="icon-ssh" viewBox="0 0 32 32">
<title>ssh</title>
<path fill="#666" style="fill: var(--color4, #666)" d="M29.935 28.638h-27.871c-1.14 0-2.064-0.924-2.064-2.064v-21.147c0-1.14 0.924-2.064 2.064-2.064h27.871c1.14 0 2.064 0.924 2.064 2.064v21.147c-0.001 1.14-0.925 2.064-2.065 2.064z"></path>
<path fill="#bcbcbc" style="fill: var(--color5, #bcbcbc)" d="M19.694 27.57h-7.389c-0.393 0-0.711-0.319-0.711-0.711v-0.105c0-0.393 0.319-0.711 0.711-0.711h7.389c0.393 0 0.711 0.319 0.711 0.711v0.105c0 0.393-0.319 0.711-0.711 0.711z"></path>
<path fill="#bcbcbc" style="fill: var(--color5, #bcbcbc)" d="M28.645 24.994h-25.291c-0.89 0-1.611-0.721-1.611-1.611v-16.352c0-0.89 0.721-1.611 1.611-1.611h25.291c0.89 0 1.611 0.721 1.611 1.611v16.352c0.001 0.889-0.721 1.611-1.611 1.611z"></path>
<path fill="#25323c" stroke="#25323c" style="fill: var(--color6, #25323c); stroke: var(--color6, #25323c)" stroke-width="0.6667" stroke-miterlimit="10" stroke-linecap="butt" stroke-linejoin="miter" d="M9.236 15.597l-3.013 1.461v-0.813l2.155-0.915v-0.014l-2.155-0.981v-0.816l3.013 1.522v0.557z"></path>
<path stroke="#25323c" fill="#25323c" style="stroke: var(--color6, #25323c); fill: var(--color6, #25323c)" stroke-width="0.6667" stroke-miterlimit="10" stroke-linecap="butt" stroke-linejoin="miter" d="M12.803 18.336h-2.742v-0.407h2.742v0.407z"></path>
<path fill="#25323c" style="fill: var(--color6, #25323c)" d="M14.942 17.129v-1.097c0.187 0.167 0.39 0.292 0.61 0.375s0.441 0.125 0.665 0.125c0.131 0 0.246-0.013 0.343-0.038s0.18-0.060 0.245-0.105c0.065-0.044 0.114-0.097 0.147-0.157s0.048-0.126 0.048-0.197c0-0.096-0.026-0.181-0.077-0.257s-0.122-0.145-0.211-0.209c-0.089-0.065-0.195-0.125-0.318-0.185s-0.255-0.12-0.397-0.181c-0.361-0.16-0.631-0.355-0.808-0.587s-0.266-0.51-0.266-0.837c0-0.256 0.048-0.476 0.145-0.66s0.229-0.335 0.395-0.455c0.167-0.119 0.36-0.207 0.579-0.263s0.451-0.084 0.697-0.084c0.241 0 0.455 0.015 0.641 0.046s0.357 0.079 0.514 0.143v1.025c-0.077-0.057-0.162-0.107-0.253-0.151s-0.185-0.079-0.282-0.108-0.193-0.049-0.289-0.063-0.187-0.021-0.273-0.021c-0.119 0-0.226 0.013-0.323 0.036s-0.179 0.058-0.245 0.101-0.119 0.095-0.155 0.155c-0.037 0.061-0.055 0.129-0.055 0.205 0 0.082 0.021 0.156 0.061 0.221s0.099 0.127 0.174 0.185c0.075 0.059 0.167 0.115 0.274 0.171s0.229 0.114 0.365 0.173c0.185 0.083 0.351 0.17 0.499 0.263s0.274 0.197 0.379 0.314 0.186 0.25 0.242 0.4 0.084 0.324 0.084 0.523c0 0.275-0.049 0.505-0.147 0.691s-0.231 0.337-0.399 0.453-0.363 0.199-0.585 0.249-0.458 0.075-0.705 0.075c-0.254 0-0.495-0.023-0.724-0.069-0.23-0.045-0.428-0.113-0.596-0.205z"></path>
<path fill="#25323c" style="fill: var(--color6, #25323c)" d="M18.645 17.129v-1.097c0.187 0.167 0.39 0.292 0.61 0.375s0.441 0.125 0.665 0.125c0.131 0 0.246-0.013 0.343-0.038s0.18-0.060 0.245-0.105c0.065-0.044 0.114-0.097 0.147-0.157s0.048-0.126 0.048-0.197c0-0.096-0.026-0.181-0.077-0.257s-0.122-0.145-0.211-0.209c-0.089-0.065-0.195-0.125-0.318-0.185s-0.255-0.12-0.397-0.181c-0.361-0.16-0.631-0.355-0.808-0.587s-0.266-0.51-0.266-0.837c0-0.256 0.048-0.476 0.145-0.66s0.229-0.335 0.395-0.455c0.167-0.119 0.36-0.207 0.579-0.263s0.451-0.084 0.697-0.084c0.241 0 0.455 0.015 0.641 0.046s0.357 0.079 0.514 0.143v1.025c-0.077-0.057-0.162-0.107-0.253-0.151s-0.185-0.079-0.282-0.108-0.193-0.049-0.289-0.063-0.187-0.021-0.273-0.021c-0.119 0-0.226 0.013-0.323 0.036-0.097 0.025-0.179 0.058-0.245 0.102s-0.119 0.095-0.155 0.155c-0.037 0.061-0.055 0.129-0.055 0.205 0 0.082 0.021 0.156 0.061 0.221s0.099 0.127 0.174 0.185c0.075 0.059 0.167 0.115 0.274 0.171s0.229 0.114 0.365 0.173c0.185 0.083 0.351 0.17 0.499 0.263s0.274 0.197 0.379 0.314 0.186 0.25 0.242 0.4 0.084 0.324 0.084 0.523c0 0.275-0.049 0.505-0.147 0.691s-0.231 0.337-0.399 0.453-0.363 0.199-0.585 0.249-0.458 0.075-0.705 0.075c-0.254 0-0.495-0.023-0.724-0.069s-0.428-0.114-0.596-0.206z"></path>
<path fill="#25323c" style="fill: var(--color6, #25323c)" d="M26.565 17.318h-1.045v-2.003h-1.917v2.003h-1.042v-4.917h1.042v1.961h1.917v-1.961h1.045v4.917z"></path>
</symbol>
<symbol id="icon-7z" viewBox="0 0 32 32">
<title>7z</title>
<path d="M0.001 3.637h31.998v24.726h-31.998v-24.726zM2.182 5.819v20.363h27.635v-20.363h-27.635z"></path>
<path d="M5.091 8.728v14.545h13.090v-14.545h-13.090zM16 13.091v0.364l-2.909 2.909v4.727h-2.909v-4.727l3.273-3.273h-5.454v-2.182h8v2.182zM26.908 13.091h-6.545v2.182h3.636l-3.636 5.818v2.182h6.545v-2.182h-3.636l3.636-5.818z"></path>
</symbol>
<symbol id="icon-mysql" viewBox="0 0 32 32">
<title>mysql</title>
<path stroke-width="0.7387" stroke-miterlimit="4" stroke-linecap="butt" stroke-linejoin="miter" d="M12.525 23.726c0.001 0.002 0.002 0.003 0.004 0.005l-0.007-0.010c0.001 0.002 0.002 0.003 0.004 0.005zM14.435 25.246v-0.063h-0.369v0.063h0.369zM13.13 23.695c-0-0-0-0-0.001-0l0.001 0.001c-0-0-0-0-0.001-0zM29.964 24.662c0.012 0.013 0.025 0.027 0.037 0.040h0.144l0.143-0.143-0.014-0.045h-0.311v0.148zM30.757 30.522c0.009 0.008 0.017 0.017 0.026 0.026l0.261-0.261-0.303 0.212c0.005 0.008 0.010 0.015 0.015 0.024zM31.299 31.019l0.081-0.063h-0.369v0.063h0.289zM28.099 23.807c-0.038-0.026-0.077-0.052-0.119-0.079-0.058-0.038-0.119-0.077-0.192-0.122-0.041-0.026-0.176-0.109-0.185-0.115-0.153-0.095-0.24-0.152-0.312-0.206-0.882-0.633-1.467-1.035-2.067-1.406-0.145-0.089-0.345-0.171-0.702-0.299-0.037-0.013-0.169-0.060-0.164-0.058-0.066-0.024-0.116-0.041-0.164-0.059-0.148-0.054-0.263-0.099-0.365-0.145-0.093-0.038-0.217-0.079-0.399-0.135-0.026-0.008-0.412-0.123-0.53-0.161-0.31-0.097-0.545-0.182-0.748-0.276-0.275-0.128-0.478-0.268-0.608-0.447-0.276-0.359-0.524-0.765-0.772-1.247-0.187-0.363-0.329-0.671-0.621-1.329-0.006-0.014-0.006-0.014-0.013-0.029-0.058-0.13-0.086-0.194-0.12-0.269l-0.001-0.001-0.001-0.001c-0.178-0.407-0.306-0.679-0.707-1.521-0.107-0.224-0.176-0.369-0.246-0.519-0.186-0.396-0.334-0.722-0.468-1.033-0.091-0.199-0.142-0.329-0.274-0.687-0.031-0.083-0.050-0.136-0.071-0.191-0.079-0.208-0.148-0.367-0.231-0.525-1.494-2.885-3.705-5.307-6.396-7.012-0.988-0.62-1.942-1.088-2.925-1.403-0.241-0.072-0.467-0.095-0.997-0.118-0.067-0.003-0.095-0.004-0.131-0.006-0.368-0.017-0.609-0.040-0.851-0.090h-0.451l-0.049-0.013c-0.151-0.042-0.294-0.115-0.44-0.216-0.106-0.074-0.202-0.153-0.335-0.273-0.272-0.244-0.252-0.226-0.32-0.275-0.551-0.373-1.099-0.642-1.999-1.007l-0.008-0.003-0.008-0.004c-0.165-0.076-0.392-0.158-0.587-0.203-0.114-0.026-0.211-0.039-0.284-0.037-0.029 0.001-0.050 0.004-0.064 0.007l-0.055 0.046-0.083 0.021c-0.010 0.002-0.018 0.005-0.025 0.007l-0.015 0.058-0.036 0.053c-0.015 0.022-0.021 0.076-0.004 0.164 0.018 0.095 0.056 0.202 0.116 0.334 0.149 0.317 0.31 0.55 0.639 0.958 0.018 0.022 0.083 0.102 0.079 0.098 0.032 0.040 0.057 0.070 0.081 0.1 0.128 0.16 0.224 0.286 0.317 0.417 0.068 0.096 0.315 0.438 0.342 0.476 0.216 0.302 0.367 0.526 0.501 0.75 0.092 0.154 0.171 0.301 0.236 0.442 0.239 0.515 0.407 0.989 0.682 1.865 0.012 0.038 0.015 0.047 0.045 0.142 0.26 0.83 0.388 1.206 0.575 1.643 0.165 0.386 0.434 0.859 0.715 1.27 0.048 0.065 0.111 0.13 0.227 0.24 0.012 0.011 0.056 0.053 0.053 0.050 0.14 0.133 0.217 0.21 0.297 0.308 0.105 0.129 0.184 0.262 0.236 0.408 0.093 0.182 0.106 0.402 0.070 0.669-0.028 0.207-0.088 0.445-0.175 0.718-0.039 0.123-0.084 0.251-0.135 0.391-0.049 0.133-0.243 0.638-0.272 0.723-0.509 1.608-0.425 3.902 0.177 5.326 0.011 0.025 0.022 0.052 0.035 0.082-0.003-0.006 0.070 0.168 0.091 0.216 0.127 0.299 0.222 0.481 0.336 0.627 0.038 0.050 0.078 0.093 0.119 0.131 0.010-0.086 0.021-0.191 0.036-0.326 0.068-0.62 0.108-0.933 0.173-1.283 0.085-0.461 0.196-0.852 0.351-1.204 0.076-0.186 0.176-0.363 0.301-0.544 0.096-0.138 0.191-0.259 0.349-0.449 0.010-0.012 0.020-0.023 0.033-0.039-0.003 0.003 0.025-0.030 0.032-0.039 0.026-0.031 0.045-0.054 0.063-0.076 0.116-0.141 0.194-0.241 0.261-0.34l0.196-0.288 0.299 0.179c0.134 0.080 0.225 0.197 0.291 0.344 0.040 0.089 0.063 0.163 0.104 0.314 0.001 0.003 0.004 0.015 0.005 0.019 0.002 0.007 0.003 0.013 0.005 0.018 0.030 0.11 0.048 0.167 0.070 0.209l0.005 0.011 0.005 0.011c0.299 0.713 0.307 0.731 0.423 0.998 0.164 0.375 0.314 0.694 0.464 0.984 0.73 1.415 1.493 2.665 2.31 3.755l0.004 0.005 0.003 0.005c0.249 0.355 0.62 0.778 1.037 1.196 0.025 0.022 0.055 0.044 0.094 0.073 0.009 0.006 0.018 0.013 0.030 0.022 0.005 0.003 0.026 0.019 0.032 0.023 0.105 0.075 0.182 0.136 0.247 0.202h0.237v0.961l-0.497-0.182c-0.219-0.080-0.42-0.202-0.622-0.365-0.148-0.12-0.272-0.239-0.477-0.449-0.009-0.009-0.017-0.018-0.029-0.030-0.007-0.007-0.007-0.007-0.014-0.015s-0.010-0.010-0.014-0.015c-0.023-0.024-0.040-0.041-0.056-0.058-0.177-0.181-0.291-0.287-0.409-0.375l-0.001-0.001c-1.112-0.84-2.193-1.928-2.809-2.9l-0.013-0.020-0.010-0.022c-0.116-0.251-0.241-0.507-0.398-0.822-0.001 0.005-0.001 0.010-0.002 0.014-0.018 0.119-0.028 0.194-0.059 0.444-0.033 0.266-0.052 0.404-0.081 0.559-0.039 0.209-0.087 0.387-0.152 0.549-0.163 0.409-0.434 0.702-0.842 0.866-0.325 0.133-0.652 0.158-0.97 0.083-0.273-0.065-0.53-0.2-0.772-0.393-0.195-0.156-0.376-0.344-0.549-0.562-0.126-0.159-0.234-0.315-0.356-0.505l-0.002-0.003-0.002-0.003c-1.142-1.859-1.417-4.906-0.644-7.335 0.042-0.131 0.072-0.256 0.124-0.509 0.002-0.007 0.003-0.014 0.006-0.028 0.058-0.28 0.088-0.408 0.136-0.565 0.046-0.15 0.099-0.283 0.164-0.404-0.029-0.049-0.076-0.098-0.16-0.173-0.005-0.004-0.021-0.019-0.024-0.021-0.112-0.101-0.171-0.161-0.235-0.249-0.265-0.359-0.488-0.742-0.803-1.344l-0.002-0.003c-0.245-0.477-0.452-0.993-0.721-1.753-0.054-0.151-0.233-0.664-0.242-0.692-0.054-0.153-0.098-0.279-0.142-0.397-0.002-0.006-0.005-0.012-0.007-0.018-0.064-0.168-0.098-0.289-0.173-0.584-0.063-0.248-0.097-0.364-0.148-0.489-0.13-0.28-0.321-0.568-0.645-0.995 0.016 0.021-0.298-0.391-0.381-0.502l-0.003-0.004-0.003-0.004c-0.059-0.085-0.128-0.174-0.275-0.358-0.197-0.247-0.262-0.331-0.366-0.47-0.344-0.461-0.584-0.869-0.73-1.294-0.192-0.557-0.201-1.099 0.014-1.618 0.25-0.611 0.674-1.010 1.236-1.19 0.475-0.153 1.027-0.144 1.643-0.005 0.502 0.114 1.035 0.312 1.585 0.576 0.428 0.205 0.845 0.44 1.221 0.677l0.002 0.002c0.076 0.049 0.154 0.108 0.243 0.183 0.034 0.029 0.070 0.059 0.113 0.097 0.023 0.020 0.1 0.088 0.109 0.096 0.18 0.158 0.294 0.248 0.39 0.301 0.161 0.007 0.33 0.016 0.557 0.030 0.044 0.003 0.079 0.005 0.157 0.009 0.39 0.023 0.563 0.033 0.777 0.042l0.035 0.001 0.034 0.008c0.091 0.021 0.402 0.093 0.416 0.097 0.553 0.129 0.881 0.213 1.219 0.319 0.435 0.137 0.806 0.29 1.141 0.481l0.002 0.001 0.002 0.001c3.764 2.211 6.098 4.441 8.224 7.95 0.14 0.229 0.265 0.471 0.39 0.746 0.095 0.211 0.174 0.402 0.311 0.747 0.205 0.517 0.271 0.678 0.387 0.929l0.002 0.004 0.002 0.004c0.586 1.359 1.153 2.57 1.703 3.614l0.002 0.004 0.002 0.004c0.065 0.13 0.117 0.241 0.219 0.467 0.010 0.023 0.016 0.035 0.021 0.046 0.246 0.543 0.379 0.792 0.573 1.029l0.009 0.011 0.007 0.009c0.002 0.002 0.005 0.005 0.009 0.008 0.013 0.010 0.032 0.022 0.058 0.035 0.053 0.027 0.119 0.052 0.232 0.091 0.015 0.005 0.069 0.023 0.076 0.026 0.141 0.048 0.222 0.079 0.306 0.121l0.004 0.002c0.203 0.105 0.403 0.195 0.772 0.355 0.004 0.002 0.131 0.057 0.168 0.073 0.602 0.261 0.933 0.421 1.264 0.635 1.155 0.717 2.329 1.599 3.495 2.606l0.003 0.002 0.002 0.002c0.202 0.181 0.339 0.345 0.617 0.712 0.004 0.005 0.004 0.005 0.007 0.010 0.211 0.279 0.31 0.4 0.436 0.527l0.108 0.108v0.613l-0.259 0.081c-0.507 0.158-0.736 0.226-1.023 0.298-0.327 0.084-0.57 0.119-1.105 0.177-0.070 0.008-0.106 0.011-0.146 0.016-0.36 0.040-0.592 0.077-0.833 0.14-0.039 0.011-0.27 0.078-0.344 0.099-0.177 0.050-0.323 0.089-0.464 0.123-0.035 0.009-0.070 0.017-0.104 0.024 0.2 0.203 0.515 0.428 0.949 0.688 0.086 0.051 0.175 0.104 0.289 0.17 0.023 0.013 0.225 0.13 0.283 0.163 0.228 0.132 0.377 0.223 0.505 0.311l0.003 0.002 0.003 0.002c0.868 0.623 1.632 1.358 2.24 2.17 0.055 0.055 0.113 0.111 0.184 0.179 0.029 0.027 0.051 0.048 0.104 0.099 0.158 0.15 0.23 0.22 0.321 0.31l0.023 0.023 0.019 0.026c0.074 0.106 0.123 0.206 0.187 0.366 0.003 0.008 0.006 0.016 0.010 0.026 0.002 0.005 0.009 0.022 0.010 0.025 0.055 0.138 0.083 0.195 0.116 0.238l0.078 0.1v0.713l-0.493-0.176c-0.126-0.045-0.237-0.111-0.344-0.197-0.074-0.060-0.127-0.112-0.226-0.215-0.007-0.007-0.011-0.011-0.013-0.013-0.087-0.091-0.13-0.132-0.176-0.165-0.167-0.114-0.302-0.212-0.598-0.431-0.387-0.287-0.558-0.409-0.766-0.541-0.315-0.199-0.598-0.341-1.215-0.625-0.004-0.002-0.047-0.021-0.059-0.027-0.023-0.010-0.041-0.019-0.059-0.027-0.554-0.256-0.863-0.411-1.194-0.615l-0.002-0.001-0.002-0.002c-0.395-0.251-0.699-0.473-1.362-0.978-0.403-0.298-0.868-0.859-1.18-1.378-0.050-0.080-0.090-0.162-0.13-0.261-0.009-0.022-0.017-0.044-0.027-0.071-0.004-0.010-0.007-0.020-0.012-0.033-0.001-0.004-0.003-0.008-0.006-0.016-0.002-0.006-0.004-0.011-0.006-0.015-0.048-0.13-0.073-0.179-0.101-0.206l-0.125-0.125 0.018-0.175c0.026-0.249 0.156-0.442 0.359-0.57 0.129-0.081 0.254-0.125 0.467-0.181 0.009-0.002 0.018-0.005 0.029-0.008 0.005-0.001 0.024-0.006 0.028-0.007 0.106-0.028 0.158-0.043 0.202-0.060 0.926-0.391 1.998-0.586 3.345-0.615z"></path>
<path stroke-width="0.7387" stroke-miterlimit="4" stroke-linecap="butt" stroke-linejoin="miter" d="M8.488 6.278c0.051 0.073 0.082 0.132 0.133 0.244 0.043 0.093 0.060 0.124 0.089 0.158l0.089 0.104v0.137c0 0.594-0.183 1.039-0.568 1.327-0.007 0.007-0.014 0.014-0.020 0.020-0 0-0 0-0 0l-0.362 0.367-0.231-0.461c-0.052-0.103-0.103-0.21-0.166-0.342-0.022-0.047-0.040-0.084-0.079-0.168-0.108-0.231-0.161-0.343-0.223-0.467-0.051-0.069-0.108-0.135-0.217-0.256-0.004-0.004-0.017-0.019-0.019-0.021-0.151-0.168-0.25-0.286-0.329-0.403h-0.199v-0.7l0.28-0.070c0.317-0.079 0.593-0.116 0.947-0.116h0.153l0.108 0.108c0.032 0.032 0.074 0.064 0.167 0.127 0.004 0.003 0.022 0.015 0.026 0.018 0.096 0.066 0.15 0.105 0.21 0.157 0.085 0.072 0.154 0.149 0.209 0.238z"></path>
</symbol>
<symbol id="icon-bitcoin" viewBox="0 0 32 32">
<title>bitcoin</title>
<path d="M25.105 10.286c0.232 2.375-0.768 3.804-2.339 4.607 2.607 0.625 4.25 2.179 3.929 5.661-0.411 4.339-3.625 5.5-8.232 5.75v4.554h-2.75v-4.482c-0.696 0-1.429 0-2.179-0.018v4.5h-2.75v-4.554c-0.643 0-1.286-0.018-1.946-0.018h-3.571l0.554-3.268c2.018 0.036 1.982 0 1.982 0 0.768 0 0.982-0.554 1.036-0.911v-7.179h0.286c-0.107-0.018-0.214-0.018-0.286-0.018v-5.125c-0.107-0.571-0.464-1.214-1.589-1.214 0 0 0.036-0.036-1.982 0v-2.929l3.786 0.018c0.554 0 1.143 0 1.732-0.018v-4.5h2.75v4.411c0.732-0.018 1.464-0.036 2.179-0.036v-4.375h2.75v4.5c3.536 0.304 6.339 1.393 6.643 4.643zM21.266 20.018c0-3.536-5.821-3.018-7.679-3.018v6.036c1.857 0 7.679 0.393 7.679-3.018zM19.998 11.518c0-3.232-4.857-2.75-6.411-2.75v5.482c1.554 0 6.411 0.357 6.411-2.732z"></path>
</symbol>
<symbol id="icon-ubuntu" viewBox="0 0 32 32">
<title>ubuntu</title>
<path d="M16 0c8.83 0 15.999 7.169 15.999 15.999s-7.169 15.999-15.999 15.999-15.999-7.169-15.999-15.999 7.169-15.999 15.999-15.999zM20.372 23.573c-1.021 0.588-1.372 1.896-0.781 2.919 0.588 1.020 1.896 1.371 2.917 0.779 1.021-0.588 1.372-1.896 0.78-2.919-0.588-1.020-1.895-1.371-2.916-0.779zM16 22.24c-0.94 0-1.831-0.209-2.628-0.58l-1.484 2.66c1.24 0.612 2.637 0.961 4.112 0.961 0.861 0 1.691-0.121 2.48-0.341 0.139-0.857 0.647-1.645 1.46-2.116 0.812-0.468 1.751-0.515 2.56-0.208 1.581-1.551 2.609-3.665 2.76-6.020l-3.047-0.044c-0.28 3.188-2.953 5.688-6.213 5.688zM9.76 16c0-2.111 1.049-3.975 2.653-5.107l-1.56-2.615c-1.872 1.24-3.26 3.159-3.841 5.38 0.675 0.539 1.107 1.379 1.107 2.32 0 0.939-0.432 1.759-1.107 2.319 0.581 2.22 1.969 4.139 3.841 5.378l1.56-2.62c-1.604-1.096-2.653-2.957-2.653-5.056zM5.12 13.864c-1.18 0-2.136 0.956-2.136 2.136s0.956 2.136 2.136 2.136 2.135-0.956 2.135-2.136-0.955-2.136-2.135-2.136zM16 9.76c3.26 0 5.933 2.5 6.213 5.686l3.047-0.045c-0.151-2.353-1.18-4.466-2.76-6.021-0.812 0.309-1.751 0.259-2.56-0.205-0.812-0.469-1.32-1.26-1.46-2.121-0.792-0.213-1.619-0.333-2.48-0.333-1.48 0-2.873 0.347-4.112 0.96l1.484 2.66c0.8-0.372 1.691-0.58 2.628-0.58zM20.372 8.425c1.020 0.589 2.328 0.241 2.919-0.78 0.588-1.020 0.241-2.328-0.784-2.92-1.020-0.587-2.328-0.239-2.919 0.785-0.588 1.019-0.24 2.325 0.784 2.915z"></path>
</symbol>
<symbol id="icon-ethereum" viewBox="0 0 32 32">
<title>ethereum</title>
<path d="M15.925 23.96l-9.819-5.8 9.817 13.84 9.827-13.84-9.825 5.8zM16.075 0l-9.821 16.297 9.82 5.805 9.82-5.8-9.819-16.303z"></path>
</symbol>
<symbol id="icon-wifi" viewBox="0 0 40 32">
<title>wifi</title>
<path d="M20 18c3.308 0 6.308 1.346 8.481 3.519l-2.827 2.827c-1.449-1.449-3.449-2.346-5.654-2.346s-4.206 0.897-5.654 2.346l-2.827-2.827c2.173-2.173 5.173-3.519 8.481-3.519zM5.858 15.858c3.777-3.777 8.8-5.858 14.142-5.858s10.365 2.080 14.142 5.858l-2.828 2.828c-3.022-3.022-7.040-4.686-11.314-4.686s-8.292 1.664-11.314 4.686l-2.828-2.828zM30.899 4.201c3.334 1.41 6.329 3.429 8.899 6v0l-2.828 2.828c-4.533-4.533-10.56-7.029-16.971-7.029s-12.438 2.496-16.971 7.029l-2.828-2.828c2.571-2.571 5.565-4.589 8.899-6 3.453-1.461 7.12-2.201 10.899-2.201s7.446 0.741 10.899 2.201zM18 28c0-1.105 0.895-2 2-2s2 0.895 2 2c0 1.105-0.895 2-2 2s-2-0.895-2-2z"></path>
</symbol>
<symbol id="icon-web" viewBox="0 0 32 32">
<title>web</title>
<path d="M15 2c-8.284 0-15 6.716-15 15s6.716 15 15 15c8.284 0 15-6.716 15-15s-6.716-15-15-15zM23.487 22c0.268-1.264 0.437-2.606 0.492-4h3.983c-0.104 1.381-0.426 2.722-0.959 4h-3.516zM6.513 12c-0.268 1.264-0.437 2.606-0.492 4h-3.983c0.104-1.381 0.426-2.722 0.959-4h3.516zM21.439 12c0.3 1.28 0.481 2.62 0.54 4h-5.979v-4h5.439zM16 10v-5.854c0.456 0.133 0.908 0.355 1.351 0.668 0.831 0.586 1.625 1.488 2.298 2.609 0.465 0.775 0.867 1.638 1.203 2.578h-4.852zM10.351 7.422c0.673-1.121 1.467-2.023 2.298-2.609 0.443-0.313 0.895-0.535 1.351-0.668v5.854h-4.852c0.336-0.94 0.738-1.803 1.203-2.578zM14 12v4h-5.979c0.059-1.38 0.24-2.72 0.54-4h5.439zM2.997 22c-0.533-1.278-0.854-2.619-0.959-4h3.983c0.055 1.394 0.224 2.736 0.492 4h-3.516zM8.021 18h5.979v4h-5.439c-0.3-1.28-0.481-2.62-0.54-4zM14 24v5.854c-0.456-0.133-0.908-0.355-1.351-0.668-0.831-0.586-1.625-1.488-2.298-2.609-0.465-0.775-0.867-1.638-1.203-2.578h4.852zM19.649 26.578c-0.673 1.121-1.467 2.023-2.298 2.609-0.443 0.312-0.895 0.535-1.351 0.668v-5.854h4.852c-0.336 0.94-0.738 1.802-1.203 2.578zM16 22v-4h5.979c-0.059 1.38-0.24 2.72-0.54 4h-5.439zM23.98 16c-0.055-1.394-0.224-2.736-0.492-4h3.516c0.533 1.278 0.855 2.619 0.959 4h-3.983zM25.958 10h-2.997c-0.582-1.836-1.387-3.447-2.354-4.732 1.329 0.636 2.533 1.488 3.585 2.54 0.671 0.671 1.261 1.404 1.766 2.192zM5.808 7.808c1.052-1.052 2.256-1.904 3.585-2.54-0.967 1.285-1.771 2.896-2.354 4.732h-2.997c0.504-0.788 1.094-1.521 1.766-2.192zM4.042 24h2.997c0.583 1.836 1.387 3.447 2.354 4.732-1.329-0.636-2.533-1.488-3.585-2.54-0.671-0.671-1.261-1.404-1.766-2.192zM24.192 26.192c-1.052 1.052-2.256 1.904-3.585 2.54 0.967-1.285 1.771-2.896 2.354-4.732h2.997c-0.504 0.788-1.094 1.521-1.766 2.192z"></path>
</symbol>
<symbol id="icon-wordpress" viewBox="0 0 32 32">
<title>wordpress</title>
<path d="M4 16c0 4.626 2.76 8.624 6.763 10.518l-5.724-15.274c-0.666 1.453-1.039 3.062-1.039 4.756zM24.101 15.41c0-1.445-0.533-2.445-0.989-3.223-0.608-0.963-1.179-1.778-1.179-2.741 0-1.074 0.836-2.074 2.015-2.074 0.053 0 0.104 0.006 0.155 0.009-2.135-1.905-4.979-3.069-8.103-3.069-4.192 0-7.881 2.095-10.026 5.268 0.282 0.009 0.547 0.014 0.772 0.014 1.255 0 3.198-0.149 3.198-0.149 0.647-0.037 0.723 0.889 0.077 0.963 0 0-0.65 0.074-1.373 0.111l4.37 12.66 2.626-7.671-1.869-4.989c-0.646-0.037-1.259-0.111-1.259-0.111-0.647-0.037-0.571-1 0.076-0.963 0 0 1.981 0.149 3.16 0.149 1.255 0 3.198-0.149 3.198-0.149 0.647-0.037 0.723 0.889 0.076 0.963 0 0-0.651 0.074-1.373 0.111l4.337 12.563 1.197-3.895c0.518-1.617 0.913-2.778 0.913-3.778zM16.211 17.022l-3.601 10.189c1.075 0.308 2.212 0.476 3.39 0.476 1.397 0 2.738-0.235 3.985-0.663-0.032-0.050-0.062-0.103-0.086-0.161l-3.688-9.842zM26.53 10.393c0.052 0.372 0.081 0.771 0.081 1.202 0 1.185-0.228 2.519-0.913 4.186l-3.665 10.321c3.568-2.026 5.967-5.79 5.967-10.102 0-2.032-0.533-3.943-1.47-5.607zM16 0c-8.837 0-16 7.163-16 16s7.163 16 16 16 16-7.163 16-16-7.163-16-16-16zM16 30c-7.732 0-14-6.268-14-14s6.268-14 14-14 14 6.268 14 14-6.268 14-14 14z"></path>
</symbol>
<symbol id="icon-tux" viewBox="0 0 32 32">
<title>tux</title>
<path d="M17.739 23.029c-2.561 1.191-4.942 1.179-6.542 1.063-1.908-0.138-3.442-0.66-4.117-1.117-0.416-0.281-0.981-0.173-1.262 0.243s-0.173 0.981 0.243 1.262c1.084 0.734 3.002 1.28 5.005 1.424 0.34 0.024 0.712 0.040 1.114 0.040 1.743 0 3.957-0.166 6.326-1.268 0.455-0.212 0.652-0.752 0.441-1.207s-0.752-0.652-1.208-0.441zM27.842 21.682c0.087-7.896 0.899-22.819-14.218-21.613-14.925 1.201-10.968 16.968-11.19 22.248-0.197 2.793-1.124 6.208-2.434 9.683h4.034c0.415-1.473 0.72-2.929 0.851-4.317 0.243 0.17 0.503 0.334 0.781 0.491 0.452 0.266 0.84 0.62 1.251 0.995 0.961 0.876 2.050 1.868 4.179 1.992 0.143 0.008 0.287 0.012 0.427 0.012 2.153 0 3.625-0.942 4.809-1.699 0.567-0.363 1.057-0.676 1.518-0.827 1.31-0.41 2.454-1.072 3.309-1.914 0.134-0.131 0.258-0.267 0.374-0.405 0.476 1.746 1.129 3.711 1.853 5.672h8.614c-2.068-3.195-4.201-6.324-4.158-10.318zM3.878 17.386c0-0 0-0.001-0-0.001-0.148-2.577 1.085-4.745 2.754-4.842s3.142 1.913 3.291 4.49c0 0 0 0.001 0 0.001 0.008 0.139 0.011 0.276 0.012 0.413-0.529 0.133-1.006 0.326-1.434 0.551-0.002-0.019-0.003-0.038-0.005-0.057 0-0 0-0.001 0-0.001-0.143-1.463-0.924-2.567-1.745-2.467s-1.371 1.367-1.228 2.83c0 0 0 0.001 0 0.001 0.062 0.638 0.246 1.207 0.501 1.639-0.064 0.050-0.243 0.182-0.45 0.333-0.155 0.114-0.344 0.252-0.572 0.42-0.621-0.815-1.047-1.987-1.123-3.309zM20.789 23.756c-0.059 1.362-1.841 2.643-3.487 3.158l-0.009 0.003c-0.684 0.222-1.295 0.613-1.941 1.026-1.085 0.695-2.208 1.413-3.829 1.413-0.106 0-0.215-0.003-0.323-0.009-1.485-0.087-2.179-0.72-3.059-1.521-0.464-0.423-0.943-0.86-1.562-1.223l-0.013-0.008c-1.335-0.753-2.163-1.69-2.216-2.506-0.026-0.406 0.154-0.757 0.537-1.044 0.832-0.624 1.39-1.032 1.759-1.302 0.41-0.3 0.533-0.39 0.625-0.477 0.066-0.062 0.136-0.131 0.213-0.205 0.764-0.743 2.043-1.986 4.005-1.986 1.2 0 2.528 0.462 3.943 1.372 0.666 0.434 1.246 0.634 1.981 0.887 0.505 0.174 1.077 0.372 1.843 0.7l0.012 0.005c0.715 0.294 1.559 0.83 1.521 1.717zM20.395 20.556c-0.137-0.069-0.28-0.135-0.43-0.196-0.691-0.296-1.245-0.496-1.704-0.656 0.254-0.497 0.411-1.116 0.426-1.789 0-0 0-0.001 0-0.001 0.035-1.637-0.79-2.966-1.844-2.968s-1.936 1.322-1.971 2.959c0 0 0 0.001 0 0.001-0.001 0.054-0.001 0.107-0.001 0.16-0.649-0.299-1.287-0.515-1.911-0.649-0.003-0.061-0.006-0.123-0.008-0.185 0-0 0-0.001 0-0.002-0.061-2.982 1.769-5.45 4.086-5.513s4.245 2.303 4.305 5.285c0 0.001 0 0.001 0 0.002 0.027 1.348-0.333 2.59-0.949 3.552z"></path>
</symbol>
<symbol id="icon-apple" viewBox="0 0 32 32">
<title>apple</title>
<path d="M24.734 17.003c-0.040-4.053 3.305-5.996 3.454-6.093-1.88-2.751-4.808-3.127-5.851-3.171-2.492-0.252-4.862 1.467-6.127 1.467-1.261 0-3.213-1.43-5.28-1.392-2.716 0.040-5.221 1.579-6.619 4.012-2.822 4.897-0.723 12.151 2.028 16.123 1.344 1.944 2.947 4.127 5.051 4.049 2.026-0.081 2.793-1.311 5.242-1.311s3.138 1.311 5.283 1.271c2.18-0.041 3.562-1.981 4.897-3.931 1.543-2.255 2.179-4.439 2.216-4.551-0.048-0.022-4.252-1.632-4.294-6.473zM20.705 5.11c1.117-1.355 1.871-3.235 1.665-5.11-1.609 0.066-3.559 1.072-4.713 2.423-1.036 1.199-1.942 3.113-1.699 4.951 1.796 0.14 3.629-0.913 4.747-2.264z"></path>
</symbol>
<symbol id="icon-win7" viewBox="0 0 32 32">
<title>win7</title>
<path d="M12.882 15.997c-1.491-0.766-2.94-1.155-4.309-1.155-0.186 0-0.373 0.006-0.561 0.022-1.746 0.145-3.341 0.605-4.367 0.963-0.272 0.1-0.551 0.205-0.838 0.322l-2.807 9.731c1.928-0.713 3.634-1.061 5.196-1.061 2.526 0 4.36 0.944 5.875 1.916 0.718-2.435 2.439-8.315 2.953-10.073-0.373-0.228-0.752-0.455-1.141-0.666zM16.511 18.471l-2.826 9.817c0.838 0.48 3.659 2.002 5.819 2.002 1.744 0 3.695-0.447 5.964-1.369l2.699-9.437c-1.832 0.591-3.59 0.891-5.233 0.891-2.998 0-5.097-0.972-6.422-1.905zM9.151 11.525c2.41 0.025 4.192 0.944 5.669 1.891l2.899-9.917c-0.611-0.35-2.213-1.222-3.371-1.519-0.762-0.178-1.563-0.269-2.413-0.269-1.619 0.030-3.387 0.436-5.403 1.244l-2.764 9.706c2.025-0.764 3.77-1.136 5.378-1.136 0.001 0 0.004 0 0.004 0zM32 6.191c-1.838 0.713-3.631 1.077-5.345 1.077-2.865 0-4.978-0.994-6.347-1.949l-2.873 9.945c1.93 1.241 4.009 1.871 6.191 1.871 1.78 0 3.623-0.427 5.483-1.271l-0.006-0.069 0.117-0.028 2.779-9.576z"></path>
</symbol>
<symbol id="icon-win10" viewBox="0 0 32 32">
<title>win10</title>
<path d="M0.011 16l-0.011-9.752 12-1.63v11.382zM14 4.328l15.996-2.328v14h-15.996zM30 18l-0.004 14-15.996-2.25v-11.75zM12 29.495l-11.99-1.644-0.001-9.851h11.991z"></path>
</symbol>
<symbol id="icon-pdf" viewBox="0 0 32 32">
<title>pdf</title>
<path d="M26.313 18.421c-0.427-0.42-1.372-0.643-2.812-0.662-0.974-0.011-2.147 0.075-3.38 0.248-0.552-0.319-1.122-0.665-1.568-1.083-1.202-1.122-2.205-2.68-2.83-4.393 0.041-0.16 0.075-0.301 0.108-0.444 0 0 0.677-3.846 0.498-5.146-0.025-0.178-0.040-0.23-0.088-0.369l-0.059-0.151c-0.184-0.425-0.545-0.875-1.111-0.85l-0.341-0.011c-0.631 0-1.146 0.323-1.281 0.805-0.411 1.514 0.013 3.778 0.781 6.71l-0.197 0.478c-0.55 1.34-1.238 2.689-1.846 3.88l-0.079 0.155c-0.639 1.251-1.22 2.313-1.745 3.213l-0.543 0.287c-0.040 0.021-0.97 0.513-1.188 0.645-1.852 1.106-3.079 2.361-3.282 3.357-0.065 0.318-0.017 0.725 0.313 0.913l0.525 0.264c0.228 0.114 0.468 0.172 0.714 0.172 1.319 0 2.85-1.643 4.959-5.324 2.435-0.793 5.208-1.452 7.638-1.815 1.852 1.043 4.129 1.767 5.567 1.767 0.255 0 0.475-0.024 0.654-0.072 0.276-0.073 0.508-0.23 0.65-0.444 0.279-0.42 0.335-0.998 0.26-1.59-0.023-0.176-0.163-0.393-0.315-0.541zM6.614 25.439c0.241-0.658 1.192-1.958 2.6-3.111 0.088-0.072 0.306-0.276 0.506-0.466-1.472 2.348-2.458 3.283-3.106 3.577zM14.951 6.241c0.424 0 0.665 1.069 0.685 2.070s-0.214 1.705-0.505 2.225c-0.241-0.77-0.357-1.984-0.357-2.778 0 0-0.018-1.517 0.177-1.517v0zM12.464 19.922c0.295-0.529 0.603-1.086 0.917-1.677 0.765-1.447 1.249-2.58 1.609-3.511 0.716 1.303 1.608 2.41 2.656 3.297 0.131 0.111 0.269 0.222 0.415 0.333-2.132 0.422-3.974 0.935-5.596 1.558v0zM25.903 19.802c-0.13 0.081-0.502 0.128-0.741 0.128-0.772 0-1.727-0.353-3.066-0.927 0.515-0.038 0.986-0.057 1.409-0.057 0.774 0 1.004-0.003 1.761 0.19s0.767 0.585 0.637 0.667v0z"></path>
<path d="M28.681 7.159c-0.694-0.947-1.662-2.053-2.724-3.116s-2.169-2.030-3.116-2.724c-1.612-1.182-2.393-1.319-2.841-1.319h-15.5c-1.378 0-2.5 1.121-2.5 2.5v26.999c0 1.378 1.121 2.5 2.5 2.5h23c1.378 0 2.5-1.121 2.5-2.5v-19.5c0-0.448-0.137-1.23-1.319-2.841v0zM24.543 5.457c0.959 0.959 1.712 1.825 2.268 2.543h-4.811v-4.811c0.718 0.556 1.584 1.309 2.543 2.268v0zM28 29.5c0 0.271-0.229 0.5-0.5 0.5h-23c-0.271 0-0.5-0.229-0.5-0.5v-26.999c0-0.271 0.229-0.5 0.5-0.5 0 0 15.498-0 15.5 0v7c0 0.552 0.448 1 1 1h7v19.5z"></path>
</symbol>
<symbol id="icon-key" viewBox="0 0 32 32">
<title>key</title>
<path d="M14.683 14.698c0.117 0 0.235-0.041 0.33-0.124l11.317-9.922-0.66-0.752-11.317 9.921c-0.208 0.182-0.229 0.498-0.046 0.706 0.099 0.113 0.237 0.171 0.376 0.171zM10.188 32c6.142 0 9.812-4.83 9.812-9.5 0-1.346-0.322-2.829-0.798-3.792l4.522-2.261c0.169-0.085 0.276-0.258 0.276-0.447v-4h3c0.011 0 0.102-0.006 0.113-0.006 0.666-0.045 0.865-0.257 0.887-0.994v-4h3c0.129 0 0.218 0.014 0.278 0.023 0.121 0.019 0.347 0.054 0.543-0.122 0.202-0.18 0.193-0.408 0.185-0.609-0.002-0.072-0.006-0.167-0.006-0.292v-4.531c0-0.81-0.659-1.469-1.469-1.469h-3.875c-0.354 0-0.698 0.129-0.969 0.364l-13.187 11.56c-0.649-0.13-1.63-0.299-2.313-0.299-5.617 0-10.187 4.57-10.187 10.187s4.57 10.188 10.188 10.188zM10.188 12.625c0.501 0 1.359 0.12 2.354 0.328 0.155 0.034 0.314-0.010 0.432-0.113l13.371-11.722c0.087-0.076 0.198-0.118 0.311-0.118h3.875c0.259 0 0.469 0.21 0.469 0.469v4.531h-3.5c-0.276 0-0.5 0.224-0.5 0.5v4.5h-3.5c-0.276 0-0.5 0.224-0.5 0.5v4.191l-4.724 2.362c-0.131 0.065-0.227 0.186-0.262 0.328s-0.006 0.293 0.080 0.412c0.44 0.607 0.906 2.114 0.906 3.707 0 4.178-3.296 8.5-8.812 8.5-5.066 0-9.188-4.122-9.188-9.188s4.122-9.187 9.188-9.187zM8.5 27c1.93 0 3.5-1.57 3.5-3.5s-1.57-3.5-3.5-3.5-3.5 1.57-3.5 3.5 1.57 3.5 3.5 3.5zM8.5 21c1.378 0 2.5 1.122 2.5 2.5s-1.122 2.5-2.5 2.5-2.5-1.122-2.5-2.5 1.122-2.5 2.5-2.5z"></path>
</symbol>
<symbol id="icon-keepass" viewBox="0 0 28 28">
<title>keepass</title>
<path d="M14 1c-7.172 0-13 5.828-13 13s5.828 13 13 13 13-5.828 13-13-5.828-13-13-13zM14 0c7.734 0 14 6.266 14 14s-6.266 14-14 14-14-6.266-14-14 6.266-14 14-14zM7.75 13c0.141 0 0.25 0.109 0.25 0.25v7.5c0 0.141-0.109 0.25-0.25 0.25h-0.5c-0.141 0-0.25-0.109-0.25-0.25v-7.5c0-0.141 0.109-0.25 0.25-0.25h0.5zM14 14c1.109 0 2 0.891 2 2 0 0.734-0.406 1.375-1 1.719v1.781c0 0.281-0.219 0.5-0.5 0.5h-1c-0.281 0-0.5-0.219-0.5-0.5v-1.781c-0.594-0.344-1-0.984-1-1.719 0-1.109 0.891-2 2-2zM14 2c6.625 0 12 5.375 12 12s-5.375 12-12 12-12-5.375-12-12 5.375-12 12-12zM8.5 9.5v1.5c0 0.281 0.219 0.5 0.5 0.5h1c0.281 0 0.5-0.219 0.5-0.5v-1.5c0-1.937 1.563-3.5 3.5-3.5s3.5 1.563 3.5 3.5v1.5c0 0.281 0.219 0.5 0.5 0.5h1c0.281 0 0.5-0.219 0.5-0.5v-1.5c0-3.031-2.469-5.5-5.5-5.5s-5.5 2.469-5.5 5.5zM22 21v-8c0-0.547-0.453-1-1-1h-14c-0.547 0-1 0.453-1 1v8c0 0.547 0.453 1 1 1h14c0.547 0 1-0.453 1-1z"></path>
</symbol>
<symbol id="icon-linux" viewBox="0 0 25 28">
<title>linux</title>
<path d="M10.359 6.422v0c-0.313 0.031-0.203 0.313-0.375 0.313-0.156 0.016-0.125-0.344 0.375-0.313zM11.719 6.641c-0.156 0.047-0.172-0.25-0.453-0.172v0c0.453-0.203 0.609 0.109 0.453 0.172zM6.234 13.312c-0.141-0.047-0.109 0.234-0.25 0.453-0.109 0.203-0.391 0.359-0.172 0.391v0c0.078 0.016 0.297-0.172 0.391-0.391 0.078-0.266 0.156-0.406 0.031-0.453zM19.594 18.922c0-0.281-0.609-0.547-0.859-0.656 0.422-1.406 0.234-1.969-0.047-3.297-0.219-1-1.141-2.359-1.859-2.781 0.187 0.156 0.531 0.609 0.891 1.297 0.625 1.172 1.25 2.906 0.844 4.344-0.156 0.562-0.531 0.641-0.781 0.656-1.094 0.125-0.453-1.313-0.906-3.266-0.516-2.188-1.047-2.344-1.172-2.516-0.641-2.844-1.344-2.562-1.547-3.625-0.172-0.953 0.828-1.734-0.531-2-0.422-0.078-1.016-0.5-1.25-0.531s-0.359-1.578 0.516-1.625c0.859-0.063 1.016 0.969 0.859 1.375-0.25 0.406 0.016 0.562 0.438 0.422 0.344-0.109 0.125-1.016 0.203-1.141-0.219-1.313-0.766-1.5-1.328-1.609-2.156 0.172-1.188 2.547-1.406 2.328-0.313-0.328-1.219-0.031-1.219-0.234 0.016-1.219-0.391-1.922-0.953-1.937-0.625-0.016-0.875 0.859-0.906 1.359-0.047 0.469 0.266 1.453 0.5 1.375 0.156-0.047 0.422-0.359 0.141-0.344-0.141 0-0.359-0.344-0.391-0.75-0.016-0.406 0.141-0.812 0.672-0.797 0.609 0.016 0.609 1.234 0.547 1.281-0.203 0.141-0.453 0.406-0.484 0.453-0.203 0.328-0.594 0.422-0.75 0.562-0.266 0.281-0.328 0.594-0.125 0.703 0.719 0.406 0.484 0.875 1.484 0.906 0.656 0.031 1.141-0.094 1.594-0.234 0.344-0.109 1.453-0.344 1.687-0.75 0.109-0.172 0.234-0.172 0.313-0.125 0.156 0.078 0.187 0.375-0.203 0.469-0.547 0.156-1.094 0.453-1.594 0.641-0.484 0.203-0.641 0.281-1.094 0.359-1.031 0.187-1.797-0.375-1.109 0.297 0.234 0.219 0.453 0.359 1.047 0.344 1.313-0.047 2.766-1.625 2.906-0.922 0.031 0.156-0.406 0.344-0.75 0.516-1.219 0.594-2.078 1.781-2.859 1.375-0.703-0.375-1.406-2.109-1.391-1.328 0.016 1.203-1.578 2.266-0.844 3.641-0.484 0.125-1.563 2.422-1.719 3.609-0.094 0.688 0.063 1.531-0.109 2-0.234 0.688-1.297-0.656-0.953-2.297 0.063-0.281 0-0.344-0.078-0.203-0.422 0.766-0.187 1.844 0.156 2.594 0.141 0.328 0.5 0.469 0.766 0.75 0.547 0.625 2.703 2.219 3.078 2.609 0.484 0.453 0.344 1.516-0.656 1.625v0c0.516 0.969 1.016 1.062 1 2.641 0.594-0.313 0.359-1 0.109-1.437-0.172-0.313-0.391-0.453-0.344-0.531 0.031-0.047 0.344-0.313 0.516-0.109 0.531 0.594 1.531 0.703 2.594 0.562 1.078-0.125 2.234-0.5 2.766-1.359 0.25-0.406 0.422-0.547 0.531-0.469 0.125 0.063 0.172 0.344 0.156 0.812-0.016 0.5-0.219 1.016-0.359 1.437-0.141 0.484-0.187 0.812 0.281 0.828 0.125-0.875 0.375-1.734 0.438-2.609 0.078-1-0.641-2.844 0.141-3.766 0.203-0.25 0.453-0.281 0.797-0.281 0.047-1.25 1.969-1.156 2.609-0.641zM9.781 6c0.063-0.391-0.125-0.672-0.219-0.703-0.187-0.047-0.156 0.234-0.063 0.203v0c0.063 0 0.141 0.094 0.109 0.234-0.031 0.187-0.016 0.313 0.125 0.313 0.016 0 0.047 0 0.047-0.047zM16.328 9.078c-0.063-0.297-0.281-0.187-0.531-0.344-0.297-0.187-0.359-0.5-0.469-0.391v0c-0.328 0.359 0.406 1.109 0.719 1.172 0.187 0.031 0.328-0.219 0.281-0.438zM13.547 5.75c0.016-0.375-0.313-0.562-0.391-0.547-0.203 0.016-0.141 0.109-0.047 0.141v0c0.125 0.031 0.25 0.25 0.281 0.484 0 0.031 0.156-0.031 0.156-0.078zM14.391 2.109c0.016-0.078-0.187-0.172-0.328-0.281-0.125-0.125-0.25-0.234-0.375-0.234-0.313 0.031-0.156 0.359-0.203 0.516v0c-0.063 0.172-0.297 0.313-0.141 0.438 0.141 0.109 0.234-0.172 0.531-0.281 0.078-0.031 0.438 0.016 0.516-0.156zM23.219 23.063c1.922 1.188-0.719 2.172-1.859 2.75-0.891 0.453-2.078 1.453-2.516 1.875-0.328 0.313-1.687 0.469-2.453 0.078-0.891-0.453-0.422-1.172-1.797-1.219-0.688-0.016-1.359-0.016-2.031-0.016-0.594 0.016-1.188 0.047-1.797 0.063-2.063 0.047-2.266 1.375-3.594 1.328-0.906-0.031-2.047-0.75-4.016-1.156-1.375-0.281-2.703-0.359-2.984-0.969s0.344-1.297 0.391-1.891c0.047-0.797-0.594-1.875-0.125-2.281 0.406-0.359 1.266-0.094 1.828-0.406 0.594-0.344 0.844-0.609 0.844-1.344 0.219 0.75-0.016 1.359-0.5 1.656-0.297 0.187-0.844 0.281-1.297 0.234-0.359-0.031-0.578 0.016-0.672 0.156-0.141 0.172-0.094 0.484 0.078 0.891s0.375 0.672 0.344 1.172c-0.016 0.5-0.578 1.094-0.484 1.516 0.031 0.156 0.187 0.297 0.578 0.406 0.625 0.172 1.766 0.344 2.875 0.609 1.234 0.313 2.516 0.875 3.313 0.766 2.375-0.328 1.016-2.875 0.641-3.484v0c-2.016-3.156-3.344-5.219-4.406-4.406-0.266 0.219-0.281-0.531-0.266-0.828 0.047-1.031 0.562-1.406 0.875-2.203 0.594-1.516 1.047-3.25 1.953-4.141 0.672-0.875 1.734-2.297 1.937-3.047-0.172-1.625-0.219-3.344-0.25-4.844-0.031-1.609 0.219-3.016 2.031-4 0.438-0.234 1.016-0.328 1.625-0.328 1.078-0.016 2.281 0.297 3.047 0.859 1.219 0.906 1.984 2.828 1.891 4.203-0.063 1.078 0.125 2.188 0.469 3.344 0.406 1.359 1.047 2.312 2.078 3.406 1.234 1.313 2.203 3.891 2.484 5.531 0.25 1.531-0.094 2.484-0.422 2.531-0.5 0.078-0.812 1.656-2.375 1.594-1-0.047-1.094-0.641-1.375-1.156-0.453-0.797-0.906-0.547-1.078 0.297-0.094 0.422-0.031 1.047 0.109 1.516 0.281 0.984 0.187 1.906 0.016 3.047-0.328 2.156 1.516 2.562 2.75 1.531 1.219-1.016 1.484-1.172 3.016-1.703 2.328-0.797 1.547-1.5 0.297-1.922-1.125-0.375-1.172-2.266-0.766-2.625 0.094 2.031 1.156 2.328 1.594 2.609z"></path>
</symbol>
<symbol id="icon-word-old" viewBox="0 0 24 28">
<title>word-old</title>
<path d="M22.937 5.938c0.578 0.578 1.062 1.734 1.062 2.562v18c0 0.828-0.672 1.5-1.5 1.5h-21c-0.828 0-1.5-0.672-1.5-1.5v-25c0-0.828 0.672-1.5 1.5-1.5h14c0.828 0 1.984 0.484 2.562 1.062zM16 2.125v5.875h5.875c-0.094-0.266-0.234-0.531-0.344-0.641l-4.891-4.891c-0.109-0.109-0.375-0.25-0.641-0.344zM22 26v-16h-6.5c-0.828 0-1.5-0.672-1.5-1.5v-6.5h-12v24h20zM3.641 12v1.672h1.094l2.562 10.328h2.484l2-7.578c0.078-0.234 0.125-0.469 0.156-0.719 0.016-0.125 0.031-0.25 0.031-0.375h0.063l0.047 0.375c0.047 0.219 0.063 0.469 0.141 0.719l2 7.578h2.484l2.562-10.328h1.094v-1.672h-4.688v1.672h1.406l-1.547 6.844c-0.063 0.25-0.094 0.516-0.109 0.719l-0.031 0.328h-0.063c0-0.094-0.031-0.219-0.047-0.328-0.047-0.203-0.078-0.469-0.141-0.719l-2.25-8.516h-1.781l-2.25 8.516c-0.063 0.25-0.078 0.516-0.125 0.719l-0.063 0.328h-0.063l-0.031-0.328c-0.016-0.203-0.047-0.469-0.109-0.719l-1.547-6.844h1.406v-1.672h-4.688z"></path>
</symbol>
</defs>
</svg>
