<?xml version="1.0" encoding="UTF-8" standalone="no"?>
<!-- Created with Inkscape (http://www.inkscape.org/) -->
<svg xmlns:dc="http://purl.org/dc/elements/1.1/" xmlns:cc="http://creativecommons.org/ns#" xmlns:rdf="http://www.w3.org/1999/02/22-rdf-syntax-ns#" xmlns:svg="http://www.w3.org/2000/svg" xmlns="http://www.w3.org/2000/svg" xmlns:sodipodi="http://sodipodi.sourceforge.net/DTD/sodipodi-0.dtd" xmlns:inkscape="http://www.inkscape.org/namespaces/inkscape" id="svg4136" version="1.1" inkscape:version="0.91 r13725" xml:space="preserve" width="368.13751" height="302.17026" viewBox="0 0 368.13751 302.17024" sodipodi:docname="VeraCrypt.svg"><metadata id="metadata4142"><rdf:RDF><cc:Work rdf:about=""><dc:format>image/svg+xml</dc:format><dc:type rdf:resource="http://purl.org/dc/dcmitype/StillImage"/><dc:title/></cc:Work></rdf:RDF></metadata><defs id="defs4140"/><sodipodi:namedview pagecolor="#ffffff" bordercolor="#666666" borderopacity="1" objecttolerance="10" gridtolerance="10" guidetolerance="10" inkscape:pageopacity="0" inkscape:pageshadow="2" inkscape:window-width="1920" inkscape:window-height="1017" id="namedview4138" showgrid="false" inkscape:zoom="0.80580595" inkscape:cx="148.07729" inkscape:cy="-212.3024" inkscape:window-x="-8" inkscape:window-y="-8" inkscape:window-maximized="1" inkscape:current-layer="g4144" fit-margin-top="0" fit-margin-left="0" fit-margin-right="0" fit-margin-bottom="0"/><g id="g4144" inkscape:groupmode="layer" inkscape:label="VeraCrypt" transform="matrix(1.25,0,0,-1.25,-21.69075,1040.6539)"><g id="g4146" transform="translate(41.9126,789.9482)"><path d="M 0,0 -24.56,42.513 24.538,42.526 0,0 Z" style="fill:#20acd9;fill-opacity:1;fill-rule:nonzero;stroke:none" id="path4148" inkscape:connector-curvature="0"/></g><g id="g4150" transform="translate(41.9014,789.9512)"><path d="M 0,0 24.549,42.52 49.098,0 0,0 Z" style="fill:#27a7d4;fill-opacity:1;fill-rule:nonzero;stroke:none" id="path4152" inkscape:connector-curvature="0"/></g><g id="g4154" transform="translate(66.4619,747.4253)"><path d="M 0,0 -24.56,42.513 24.538,42.526 0,0 Z" style="fill:#259ed2;fill-opacity:1;fill-rule:nonzero;stroke:none" id="path4156" inkscape:connector-curvature="0"/></g><g id="g4158" transform="translate(66.4507,747.4282)"><path d="M 0,0 24.549,42.52 49.098,0 0,0 Z" style="fill:#2a8ece;fill-opacity:1;fill-rule:nonzero;stroke:none" id="path4160" inkscape:connector-curvature="0"/></g><g id="g4162" transform="translate(91.0107,704.8994)"><path d="M 0,0 -24.56,42.513 24.538,42.526 0,0 Z" style="fill:#3088c8;fill-opacity:1;fill-rule:nonzero;stroke:none" id="path4164" inkscape:connector-curvature="0"/></g><g id="g4166" transform="translate(90.9995,704.9023)"><path d="M 0,0 24.549,42.52 49.098,0 0,0 Z" style="fill:#357abe;fill-opacity:1;fill-rule:nonzero;stroke:none" id="path4168" inkscape:connector-curvature="0"/></g><g id="g4170" transform="translate(115.5596,662.3735)"><path d="M 0,0 -24.56,42.513 24.538,42.526 0,0 Z" style="fill:#3a6db3;fill-opacity:1;fill-rule:nonzero;stroke:none" id="path4172" inkscape:connector-curvature="0"/></g><g id="g4174" transform="translate(115.5483,662.3765)"><path d="M 0,0 24.549,42.52 49.098,0 0,0 Z" style="fill:#22697d;fill-opacity:1;fill-rule:nonzero;stroke:none" id="path4176" inkscape:connector-curvature="0"/></g><g id="g4178" transform="translate(164.6577,662.3735)"><path d="M 0,0 -24.56,42.513 24.538,42.526 0,0 Z" style="fill:#3a9ab1;fill-opacity:1;fill-rule:nonzero;stroke:none" id="path4180" inkscape:connector-curvature="0"/></g><g id="g4182" transform="translate(140.0967,704.9023)"><path d="M 0,0 24.549,42.52 49.098,0 0,0 Z" style="fill:#3aa6ae;fill-opacity:1;fill-rule:nonzero;stroke:none" id="path4184" inkscape:connector-curvature="0"/></g><g id="g4186" transform="translate(189.2075,704.9038)"><path d="M 0,0 -24.56,42.513 24.538,42.526 0,0 Z" style="fill:#3bacac;fill-opacity:1;fill-rule:nonzero;stroke:none" id="path4188" inkscape:connector-curvature="0"/></g><g id="g4190" transform="translate(164.6465,747.4326)"><path d="M 0,0 24.549,42.52 49.099,0 0,0 Z" style="fill:#3daaa0;fill-opacity:1;fill-rule:nonzero;stroke:none" id="path4192" inkscape:connector-curvature="0"/></g><g id="g4194" transform="translate(213.7568,747.4238)"><path d="M 0,0 -24.56,42.513 24.539,42.526 0,0 Z" style="fill:#3faa8d;fill-opacity:1;fill-rule:nonzero;stroke:none" id="path4196" inkscape:connector-curvature="0"/></g><g id="g4198" transform="translate(189.1963,789.9526)"><path d="M 0,0 24.549,42.52 49.098,0 0,0 Z" style="fill:#40ab86;fill-opacity:1;fill-rule:nonzero;stroke:none" id="path4200" inkscape:connector-curvature="0"/></g><g id="g4202" transform="translate(189.3052,704.9482)"><path d="M 0,0 -24.561,42.513 24.538,42.526 0,0 Z" style="fill:#2f6b54;fill-opacity:1;fill-rule:nonzero;stroke:none" id="path4204" inkscape:connector-curvature="0"/></g><g id="g4206" transform="translate(164.7446,747.4771)"><path d="M 0,0 24.549,42.52 49.098,0 0,0 Z" style="fill:#44b496;fill-opacity:1;fill-rule:nonzero;stroke:none" id="path4208" inkscape:connector-curvature="0"/></g><g id="g4210" transform="translate(213.8545,747.4727)"><path d="M 0,0 -24.559,42.513 24.539,42.526 0,0 Z" style="fill:#52b89b;fill-opacity:1;fill-rule:nonzero;stroke:none" id="path4212" inkscape:connector-curvature="0"/></g><g id="g4214" transform="translate(189.2935,790.0015)"><path d="M 0,0 24.549,42.52 49.098,0 0,0 Z" style="fill:#5cba9d;fill-opacity:1;fill-rule:nonzero;stroke:none" id="path4216" inkscape:connector-curvature="0"/></g><g id="g4218" transform="translate(238.4053,789.9971)"><path d="M 0,0 -24.561,42.513 24.537,42.526 0,0 Z" style="fill:#6fc0a6;fill-opacity:1;fill-rule:nonzero;stroke:none" id="path4220" inkscape:connector-curvature="0"/></g><g id="g4222" transform="translate(238.2139,789.9512)"><path d="M 0,0 24.549,42.52 49.1,0 0,0 Z" style="fill:#88c9b2;fill-opacity:1;fill-rule:nonzero;stroke:none" id="path4224" inkscape:connector-curvature="0"/></g><g id="g4226" transform="translate(287.3076,789.999)"><path d="M 0,0 -24.543,42.522 24.555,42.516 0,0 Z" style="fill:#99d0bb;fill-opacity:1;fill-rule:nonzero;stroke:none" id="path4228" inkscape:connector-curvature="0"/></g><g id="g4230" transform="translate(189.1782,705.0894)"><path d="M 0,0 24.786,42.383 49.098,-0.273 0,0 Z" style="fill:#37a084;fill-opacity:1;fill-rule:nonzero;stroke:none" id="path4232" inkscape:connector-curvature="0"/></g><g id="g4234" transform="translate(213.667,662.4312)"><path d="M 0,0 24.549,42.52 49.1,0 0,0 Z" style="fill:#35896c;fill-opacity:1;fill-rule:nonzero;stroke:none" id="path4236" inkscape:connector-curvature="0"/></g><g id="g4238" transform="translate(262.7764,662.4268)"><path d="M 0,0 -24.559,42.513 24.539,42.526 0,0 Z" style="fill:#379b7f;fill-opacity:1;fill-rule:nonzero;stroke:none" id="path4240" inkscape:connector-curvature="0"/></g><g id="g4242" transform="translate(262.7646,662.4355)"><path d="M 0,0 24.549,42.52 49.098,0 0,0 Z" style="fill:#3bad91;fill-opacity:1;fill-rule:nonzero;stroke:none" id="path4244" inkscape:connector-curvature="0"/></g><g id="g4246" transform="translate(213.6787,662.4268)"><path d="M 0,0 -24.56,42.513 24.537,42.526 0,0 Z" style="fill:#368f74;fill-opacity:1;fill-rule:nonzero;stroke:none" id="path4248" inkscape:connector-curvature="0"/></g><g transform="matrix(1,0,0,-1,35.0391,604.0469)" style="font-variant:normal;font-weight:bold;font-stretch:normal;font-size:60px;font-family:'Myriad Pro';-inkscape-font-specification:MyriadPro-Bold;writing-mode:lr-tb;fill:#2b2b2a;fill-opacity:1;fill-rule:nonzero;stroke:none" id="text4250"><path d="m 21.96,0 13.98,-40.44 -7.86,0 -5.88,18.48 c -1.62,4.92 -3.06,9.84 -4.14,14.64 l -0.12,0 c -1.08,-4.92 -2.4,-9.66 -3.96,-14.76 l -5.52,-18.36 -8.04,0 L 13.5,0 21.96,0 Z" style="font-style:normal;font-variant:normal;font-weight:600;font-stretch:normal;font-family:'Myriad Pro';-inkscape-font-specification:'Myriad Pro Semi-Bold'" id="path4190"/><path d="m 64.379999,-12.54 c 0.12,-0.66 0.24,-1.74 0.24,-3.12 0,-6.42 -3.12,-14.22 -12.6,-14.22 -9.36,0 -14.28,7.62 -14.28,15.72 0,8.94 5.58,14.76 15.06,14.76 4.2,0 7.68,-0.78 10.2,-1.8 l -1.08,-5.1 c -2.22,0.84 -4.68,1.32 -8.1,1.32 -4.68,0 -8.82,-2.28 -9,-7.56 l 19.56,0 z m -19.56,-5.16 c 0.3,-3 2.22,-7.14 6.78,-7.14 4.92,0 6.12,4.44 6.06,7.14 l -12.84,0 z" style="font-style:normal;font-variant:normal;font-weight:600;font-stretch:normal;font-family:'Myriad Pro';-inkscape-font-specification:'Myriad Pro Semi-Bold'" id="path4193"/><path d="m 71.28,0 7.38,0 0,-15.12 c 0,-0.84 0.12,-1.62 0.24,-2.28 0.66,-3.3 3.06,-5.58 6.6,-5.58 0.9,0 1.56,0.12 2.16,0.24 l 0,-6.96 c -0.6,-0.12 -1.02,-0.18 -1.74,-0.18 -3.12,0 -6.54,2.1 -7.98,6.24 l -0.24,0 -0.24,-5.58 -6.42,0 c 0.18,2.64 0.24,5.46 0.24,9.42 l 0,19.8 z" style="font-style:normal;font-variant:normal;font-weight:600;font-stretch:normal;font-family:'Myriad Pro';-inkscape-font-specification:'Myriad Pro Semi-Bold'" id="path4195"/><path d="m 116.52,0 c -0.3,-1.8 -0.42,-4.38 -0.42,-7.02 l 0,-10.56 c 0,-6.36 -2.7,-12.3 -12.06,-12.3 -4.620001,0 -8.400001,1.26 -10.560001,2.58 l 1.44,4.8 c 1.98,-1.26 4.98,-2.16 7.860001,-2.16 5.16,0 5.94,3.18 5.94,5.1 l 0,0.48 c -10.800001,-0.06 -17.340001,3.66 -17.340001,11.04 0,4.44 3.3,8.7 9.180001,8.7 3.78,0 6.84,-1.62 8.64,-3.9 l 0.18,0 0.48,3.24 6.66,0 z m -7.62,-10.26 c 0,0.48 -0.06,1.08 -0.24,1.62 -0.66,2.1 -2.82,4.02 -5.76,4.02 -2.34,0 -4.200001,-1.32 -4.200001,-4.2 0,-4.44 4.980001,-5.58 10.200001,-5.46 l 0,4.02 z" style="font-style:normal;font-variant:normal;font-weight:600;font-stretch:normal;font-family:'Myriad Pro';-inkscape-font-specification:'Myriad Pro Semi-Bold'" id="path4197"/></g><g transform="matrix(1,0,0,-1,156.1791,604.0469)" style="font-variant:normal;font-weight:normal;font-stretch:normal;font-size:60px;font-family:'Myriad Pro';-inkscape-font-specification:MyriadPro-Regular;writing-mode:lr-tb;fill:#2b2b2a;fill-opacity:1;fill-rule:nonzero;stroke:none" id="text4254"><path d="m 31.74,-5.46 c -2.1,1.02 -5.34,1.68 -8.52,1.68 -9.84,0 -15.54,-6.36 -15.54,-16.26 0,-10.62 6.3,-16.68 15.78,-16.68 3.36,0 6.18,0.72 8.16,1.68 l 1.26,-4.26 c -1.38,-0.72 -4.56,-1.8 -9.6,-1.8 -12.54,0 -21.12,8.58 -21.12,21.24 0,13.26 8.58,20.46 19.98,20.46 4.92,0 8.76,-0.96 10.68,-1.92 l -1.08,-4.14 z" style="font-style:normal;font-variant:normal;font-weight:normal;font-stretch:normal;font-family:'Myriad Pro';-inkscape-font-specification:'Myriad Pro'" id="path4201"/><path d="m 38.999999,0 5.22,0 0,-15.48 c 0,-0.9 0.12,-1.74 0.24,-2.46 0.72,-3.96 3.36,-6.78 7.08,-6.78 0.72,0 1.26,0.06 1.8,0.18 l 0,-4.98 c -0.48,-0.12 -0.9,-0.18 -1.5,-0.18 -3.54,0 -6.72,2.46 -8.04,6.36 l -0.24,0 -0.18,-5.7 -4.62,0 c 0.18,2.7 0.24,5.64 0.24,9.06 l 0,19.98 z" style="font-style:normal;font-variant:normal;font-weight:normal;font-stretch:normal;font-family:'Myriad Pro';-inkscape-font-specification:'Myriad Pro'" id="path4203"/><path d="m 56.280002,-29.04 10.74,26.76 c 0.24,0.66 0.36,1.08 0.36,1.38 0,0.3 -0.18,0.72 -0.42,1.26 -1.2,2.7 -3,4.74 -4.44,5.88 -1.56,1.32 -3.3,2.16 -4.62,2.58 l 1.32,4.44 c 1.32,-0.24 3.9,-1.14 6.48,-3.42 3.6,-3.12 6.18,-8.22 9.96,-18.18 l 7.92,-20.7 -5.58,0 -5.76,17.04 c -0.72,2.1 -1.32,4.32 -1.86,6.06 l -0.12,0 c -0.48,-1.74 -1.2,-4.02 -1.86,-5.94 l -6.36,-17.16 -5.76,0 z" style="font-style:normal;font-variant:normal;font-weight:normal;font-stretch:normal;font-family:'Myriad Pro';-inkscape-font-specification:'Myriad Pro'" id="path4205"/><path d="m 88.38,11.88 5.22,0 0,-15.78 0.12,0 c 1.74,2.88 5.1,4.56 8.94,4.56 6.84,0 13.2,-5.16 13.2,-15.6 0,-8.82 -5.28,-14.76 -12.3,-14.76 -4.74,0 -8.16,2.1 -10.32,5.64 l -0.12,0 -0.24,-4.98 -4.74,0 c 0.12,2.76 0.24,5.76 0.24,9.48 l 0,31.44 z M 93.6,-16.8 c 0,-0.72 0.18,-1.5 0.36,-2.16 1.02,-3.96 4.38,-6.54 7.98,-6.54 5.58,0 8.64,4.98 8.64,10.8 0,6.66 -3.24,11.22 -8.82,11.22 -3.78,0 -6.96,-2.52 -7.92,-6.18 -0.12,-0.66 -0.24,-1.38 -0.24,-2.16 l 0,-4.98 z" style="font-style:normal;font-variant:normal;font-weight:normal;font-stretch:normal;font-family:'Myriad Pro';-inkscape-font-specification:'Myriad Pro'" id="path4207"/><path d="m 123.72,-36 0,6.96 -4.5,0 0,4.02 4.5,0 0,15.84 c 0,3.42 0.54,6 2.04,7.56 1.26,1.44 3.24,2.22 5.7,2.22 2.04,0 3.66,-0.3 4.68,-0.72 l -0.24,-3.96 c -0.66,0.18 -1.68,0.36 -3.06,0.36 -2.94,0 -3.96,-2.04 -3.96,-5.64 l 0,-15.66 7.56,0 0,-4.02 -7.56,0 0,-8.34 -5.16,1.38 z" style="font-style:normal;font-variant:normal;font-weight:normal;font-stretch:normal;font-family:'Myriad Pro';-inkscape-font-specification:'Myriad Pro'" id="path4209"/></g></g></svg>