<svg xmlns="http://www.w3.org/2000/svg" xmlns:xlink="http://www.w3.org/1999/xlink" xmlns:v="http://vecta.io" width="1024" height="1026" viewBox="0 0 1024 1026" >
    <style>svg{stroke:#000;stroke-linecap:round;stroke-linejoin:round;fill:#fff;fill-rule:evenodd;font-family:Roboto;font-size:14px;text-anchor:middle}svg text{stroke:none}</style>
    <g id="k14ws6g1hh" transform="translate(0.5 0.5)">
        <g >
            <g id="k14ws6g2hi">
                <path d="M 0 153.75 C 0 68.5725 68.5725 0 153.75 0 L 871.2499 0 C 956.4274 0 1024.9999 68.5725 1024.9999 153.75 L 1024.9999 871.2499 C 1024.9999 956.4274 956.4274 1024.9999 871.2499 1024.9999 L 153.75 1024.9999 C 68.5725 1024.9999 0 956.4274 0 871.2499 Z" stroke="none" fill="#646464" fill-rule="nonzero" fill-opacity="1"/>
            </g>
            <g id="k14ws6g2hj" transform="translate(210.2051 190.1855)">
                <path d="M 406.3965 356.3476 C 400.3906 352.3437 394.3847 350.3418 388.3789 358.3496 L 364.3554 390.3808 C 358.3496 394.3847 354.3457 396.3867 346.3379 392.3828 C 316.3086 376.3672 274.2676 358.3496 238.2324 298.291 C 236.2305 290.2832 240.2344 286.2793 244.2383 282.2754 L 262.2558 254.248 C 266.2597 250.2441 264.2578 246.2402 262.2558 242.2363 L 238.2324 184.1797 C 232.2265 168.1641 226.2207 170.166 220.2148 170.166 L 204.1992 170.166 C 200.1953 170.166 192.1875 172.168 184.1797 180.1758 C 140.1367 224.2187 158.1543 286.2793 190.1855 326.3183 C 196.1914 334.3262 236.2305 406.3965 322.3144 444.4336 C 386.3769 472.4609 400.3906 468.457 418.4082 464.4531 C 440.4297 462.4511 462.4511 444.4336 472.4609 426.416 C 474.4629 420.4101 484.4726 394.3847 476.4648 390.3808 M 318.3105 578.5644 C 236.2305 578.5644 174.1699 534.5215 174.1699 534.5215 L 76.0742 560.5468 L 100.0977 464.4531 C 100.0977 464.4531 60.0586 402.3926 60.0586 324.3164 C 60.0586 180.1758 178.1738 60.0586 324.3164 60.0586 C 460.4492 60.0586 576.5625 166.1621 576.5625 314.3066 C 576.5625 458.4472 460.4492 576.5625 318.3105 578.5644 M 0 636.6211 L 166.1621 590.5761 C 264.0168 640.673 380.8646 636.3696 474.769 579.2104 C 568.6736 522.0511 626.1655 420.2348 626.6113 310.3027 C 626.6113 138.1348 490.4785 0 318.3105 0 C 205.861 0.2877 102.0185 60.2546 45.5634 157.5057 C -10.8918 254.7569 -11.4706 374.6691 44.043 472.4609" stroke="none" fill-rule="nonzero" fill="#ffffff" fill-opacity="1"/>
            </g>
        </g>
    </g>
</svg>