<?xml version="1.0" encoding="UTF-8" standalone="no"?>
<svg width="399px" height="381px" viewBox="0 0 399 381" version="1.1" xmlns="http://www.w3.org/2000/svg" xmlns:xlink="http://www.w3.org/1999/xlink" xmlns:sketch="http://www.bohemiancoding.com/sketch/ns">
    <!-- Generator: Sketch 3.2.2 (9983) - http://www.bohemiancoding.com/sketch -->
    <title>Windows_7_logo</title>
    <desc>Created with Sketch.</desc>
    <defs>
        <path id="path-1" d="M33.1100299,17.5403742 C94.5454601,-7.76521875 124.282718,5.73567294 150.911928,23.8152984 L120.154995,129.52326 C93.4277392,111.551485 64.3669963,96.7465859 2.68645194,122.258075 L32.7472609,17.692345 L33.1100299,17.5403742 L33.1100299,17.5403742 Z"/>
        <path id="path-2" d="M34.6640542,4.61795206 C61.3717005,22.5897273 88.6872301,35.7670682 151.460984,14.3048664 L122.160029,116.228265 C60.5481167,141.71034 30.9628293,127.282916 4.28459671,109.193486 L34.6640542,4.61795206 L34.6640542,4.61795206 Z"/>
        <path id="path-3" d="M121.718823,127.322135 C105.644232,116.492988 88.3440701,106.364868 63.7689176,106.183484 C47.5619648,106.056024 28.2567682,110.669074 3.75024769,120.787389 L34.110096,15.5745581 C95.7514221,-9.91732167 125.371025,4.53461322 152.073769,22.5946296 L121.718823,127.322135 L121.718823,127.322135 Z"/>
        <path id="path-4" d="M148.617659,11.0301403 C87.0596716,36.4680949 57.4841888,22.1632285 30.8353699,4.21106244 L0.465717034,109.517037 C27.0949268,127.572151 59.2735227,142.377051 118.292127,115.973346 L148.617659,11.0301403 L148.617659,11.0301403 Z"/>
    </defs>
    <g id="Page-1" stroke="none" stroke-width="1" fill="none" fill-rule="evenodd" sketch:type="MSPage">
        <g id="Windows_7_logo" sketch:type="MSLayerGroup" transform="translate(0.000000, -2.000000)">
            <g id="Layer_1">
                <g id="Group" transform="translate(34.000000, 123.271958)">
                    <g id="Shape">
                        <use fill="none" sketch:type="MSShapeGroup" xlink:href="#path-1"/>
                        <use fill="#C2C2C2" fill-rule="evenodd" xlink:href="#path-1"/>
                    </g>
                </g>
                <g id="Group" transform="translate(166.361683, 152.685665)">
                    <g id="Shape">
                        <use fill="none" sketch:type="MSShapeGroup" xlink:href="#path-2"/>
                        <use fill="#C2C2C2" fill-rule="evenodd" xlink:href="#path-2"/>
                    </g>
                </g>
                <g id="Group" transform="translate(68.315992, 0.714844)">
                    <g id="Shape">
                        <use fill="none" sketch:type="MSShapeGroup" xlink:href="#path-3"/>
                        <use fill="#C2C2C2" fill-rule="evenodd" xlink:href="#path-3"/>
                    </g>
                </g>
                <g id="Group" transform="translate(205.579960, 30.128551)">
                    <g id="Shape">
                        <use fill="none" sketch:type="MSShapeGroup" xlink:href="#path-4"/>
                        <use fill="#C2C2C2" fill-rule="evenodd" xlink:href="#path-4"/>
                    </g>
                </g>
                <path d="M61.7587787,366.472081 C61.0856745,368.992425 60.6896565,371.004147 60.573255,372.502183 L60.3961224,372.502183 C60.1607889,370.387978 59.8090541,368.438253 59.3409177,366.649213 L46.0066233,317.893446 L38.8795637,317.893446 L24.8860827,366.296213 C24.1244122,368.965856 23.6853763,371.076265 23.5677095,372.635032 L23.3905769,372.635032 C23.2159747,370.403161 22.8503222,368.292751 22.2910891,366.296213 L8.86949354,317.893446 L0.772,317.893446 L19.2102458,380.995694 L27.7910585,380.995694 L40.8609192,334.747619 C41.4467222,332.723246 41.8427403,330.625489 42.0464429,328.453083 L42.2235755,328.453083 C42.3121419,330.714055 42.6360416,332.839647 43.191479,334.833655 L56.1740386,380.998225 L64.8421524,380.998225 L82.6642296,317.894711 L74.6553024,317.894711 L61.7587787,366.472081 L61.7587787,366.472081 Z M87.5518261,380.995694 L94.767452,380.995694 L94.767452,335.934408 L87.5518261,335.934408 L87.5518261,380.995694 L87.5518261,380.995694 Z M91.2475727,315.118789 C89.9570347,315.118789 88.8499555,315.567947 87.9263352,316.462467 C87.0014496,317.356987 86.5396394,318.465331 86.5396394,319.784969 C86.5396394,321.162809 87.0027148,322.293927 87.9263352,323.171999 C88.8499555,324.053867 89.9570347,324.492903 91.2475727,324.492903 C92.5697416,324.492903 93.6882079,324.037419 94.6143587,323.128981 C95.5392443,322.216748 96.0010545,321.103343 96.0010545,319.782439 C96.0010545,318.462801 95.5379791,317.355721 94.6143587,316.459936 C93.6882079,315.567947 92.5697416,315.118789 91.2475727,315.118789 L91.2475727,315.118789 Z M127.77233,334.833655 C121.286743,334.833655 116.358659,337.694348 112.985547,343.415733 L112.810945,343.415733 L112.810945,335.933143 L105.594054,335.933143 L105.594054,380.994429 L112.810945,380.994429 L112.810945,355.295009 C112.810945,351.157696 113.991408,347.740301 116.353598,345.041558 C118.714524,342.342815 121.697944,340.991546 125.30892,340.991546 C132.291743,340.991546 135.779992,345.76021 135.779992,355.295009 L135.779992,380.995694 L142.999413,380.995694 L142.999413,353.403485 C142.999413,347.475867 141.701284,342.902048 139.102494,339.674438 C136.50497,336.448093 132.729514,334.833655 127.77233,334.833655 L127.77233,334.833655 Z M183.968935,342.137847 L183.794332,342.137847 C180.947557,337.265434 176.443327,334.83239 170.282905,334.83239 C164.035183,334.83239 159.033716,337.075649 155.279768,341.568492 C151.524556,346.053745 149.645684,352.053481 149.645684,359.563906 C149.645684,366.603665 151.404358,372.149183 154.925503,376.196664 C158.298615,380.125214 162.756032,382.093917 168.30155,382.093917 C175.284373,382.093917 180.449055,379.173758 183.790537,373.334706 L183.967669,373.334706 L183.967669,380.995694 L191.183295,380.995694 L191.183295,314.285 L183.967669,314.285 L183.968935,342.137847 L183.968935,342.137847 Z M183.968935,360.620376 C183.968935,364.961392 182.765698,368.567307 180.36302,371.445713 C177.808513,374.436725 174.478419,375.934761 170.372737,375.934761 C166.502388,375.934761 163.362079,374.553126 160.95687,371.797448 C158.345429,368.803906 157.038443,364.59574 157.038443,359.170419 C157.038443,353.476869 158.301145,349.023247 160.826551,345.812085 C163.349427,342.599657 166.80984,340.991546 171.210321,340.991546 C174.935168,340.991546 178.016012,342.283349 180.451586,344.86569 C182.797329,347.327835 183.9702,350.36819 183.9702,353.97284 L183.968935,360.620376 L183.968935,360.620376 Z M222.087886,334.833655 C215.25183,334.833655 209.798674,336.827663 205.719561,340.816944 C201.317815,345.099759 199.120104,351.158961 199.120104,358.992021 C199.120104,365.855912 201.053381,371.387512 204.927525,375.580496 C208.890236,379.922777 214.257356,382.091387 221.032681,382.091387 C227.895307,382.091387 233.353523,379.920246 237.401005,375.580496 C241.453547,371.235684 243.47539,365.472546 243.47539,358.287286 C243.47539,350.980563 241.590193,345.24273 237.821062,341.080112 C234.050667,336.916229 228.803744,334.833655 222.087886,334.833655 L222.087886,334.833655 Z M232.431168,371.312863 C229.934863,374.392441 226.3125,375.933496 221.559018,375.933496 C216.983934,375.933496 213.331205,374.41395 210.605893,371.37739 C207.876784,368.342096 206.511598,364.123808 206.511598,358.723791 C206.511598,352.973306 207.93625,348.529806 210.780495,345.390762 C213.481768,342.459217 217.0725,340.990281 221.560283,340.990281 C226.108797,340.990281 229.645124,342.440238 232.166735,345.346479 C234.778176,348.369122 236.082632,352.768338 236.082632,358.547924 C236.081367,364.066872 234.865477,368.320587 232.431168,371.312863 L232.431168,371.312863 Z M291.305007,369.904659 C290.897602,371.459631 290.661003,372.808369 290.599007,373.95214 L290.249803,373.95214 C290.134666,372.337703 289.927168,370.988964 289.634899,369.904659 L280.263316,335.930612 L273.661328,335.930612 L263.31931,369.728791 C262.851174,371.226828 262.571558,372.602136 262.485522,373.864839 L262.131256,373.864839 C262.014855,372.337703 261.808622,370.990229 261.515088,369.813562 L252.230805,335.931878 L244.660914,335.931878 L258.260907,380.995694 L265.477799,380.995694 L275.554117,348.651269 C276.082985,346.977365 276.391702,345.628626 276.477737,344.601257 L276.65487,344.601257 C276.800372,346.185329 277.03444,347.565698 277.357075,348.73857 L286.645153,380.994429 L294.125212,380.994429 L307.635374,335.933143 L300.503254,335.933143 L291.305007,369.904659 L291.305007,369.904659 Z M325.506796,355.693558 C322.076748,354.225887 319.815776,352.978367 318.731471,351.952263 C317.528234,350.835061 316.924718,349.281355 316.924718,347.286082 C316.924718,345.440106 317.64337,343.930683 319.07941,342.755281 C320.520511,341.581145 322.434809,340.995342 324.846344,340.995342 C328.691388,340.995342 332.09107,342.065729 335.050451,344.207769 L335.050451,336.94786 C332.208737,335.539655 328.996309,334.83492 325.415699,334.83492 C320.750783,334.83492 316.938635,336.076114 313.976724,338.552176 C311.013547,341.032033 309.528163,344.148303 309.528163,347.904781 C309.528163,351.251323 310.482149,353.963984 312.390121,356.046558 C313.976724,357.807763 316.660284,359.506971 320.443332,361.150509 C324.111243,362.763682 326.574653,364.140256 327.837355,365.287822 C329.094997,366.431593 329.727614,367.885346 329.727614,369.646551 C329.727614,373.838269 326.866921,375.938557 321.145536,375.938557 C316.862721,375.938557 312.963272,374.499986 309.439597,371.626641 L309.439597,379.371135 C312.607741,381.189275 316.336384,382.098978 320.616669,382.098978 C325.843348,382.098978 329.965478,380.778074 332.98306,378.138797 C335.742534,375.700693 337.119107,372.636298 337.119107,368.939286 C337.119107,365.592743 336.018354,362.839596 333.820644,360.668455 C332.11764,358.962921 329.346779,357.3042 325.506796,355.693558 L325.506796,355.693558 Z" id="Shape" fill="#C2C2C2" sketch:type="MSShapeGroup"/>
                <path d="M357.651314,316.824323 L357.651314,321.003389 L392.414866,321.003389 L366.625615,381.958537 L370.79962,381.958537 L398.34375,316.824323 L357.651314,316.824323 Z" id="Shape" fill="#C2C2C2" sketch:type="MSShapeGroup"/>
            </g>
        </g>
    </g>
</svg>